SplineFontDB: 3.2
FontName: Crystalis
FullName: Crystalis Regular
FamilyName: Crystalis
Weight: Book
Copyright: 
Version: 1.0
ItalicAngle: 0
UnderlinePosition: 26
UnderlineWidth: 51
Ascent: 819
Descent: 205
InvalidEm: 0
sfntRevision: 0x00010000
LayerCount: 2
Layer: 0 1 "Back" 1
Layer: 1 1 "Fore" 0
XUID: [1021 726 772322462 2168960]
StyleMap: 0x0040
FSType: 4
OS2Version: 2
OS2_WeightWidthSlopeOnly: 0
OS2_UseTypoMetrics: 0
CreationTime: 1463551473
ModificationTime: 1699162791
PfmFamily: 81
TTFWeight: 400
TTFWidth: 5
LineGap: 0
VLineGap: 0
Panose: 0 0 4 0 0 0 0 0 0 0
OS2TypoAscent: 896
OS2TypoAOffset: 0
OS2TypoDescent: 0
OS2TypoDOffset: 0
OS2TypoLinegap: 0
OS2WinAscent: 1024
OS2WinAOffset: 0
OS2WinDescent: 128
OS2WinDOffset: 0
HheadAscent: 1024
HheadAOffset: 0
HheadDescent: -128
HheadDOffset: 0
OS2SubXSize: 512
OS2SubYSize: 512
OS2SubXOff: 0
OS2SubYOff: 0
OS2SupXSize: 512
OS2SupYSize: 512
OS2SupXOff: 0
OS2SupYOff: 512
OS2StrikeYSize: 51
OS2StrikeYPos: 204
OS2CapHeight: 896
OS2XHeight: 640
OS2Vendor: 'FSTR'
OS2CodePages: 000001ff.00000000
OS2UnicodeRanges: a00000af.0007606b.00000010.00000000
MarkAttachClasses: 1
DEI: 91125
ShortTable: maxp 16
  1
  0
  667
  114
  18
  0
  0
  2
  0
  0
  0
  0
  0
  0
  0
  0
EndShort
LangName: 1033 "" "" "Regular" "" "" "Version 1.0" "" "" "" "" "" "" "" "" "" "" "" "" "" "The quick brown fox jumps over the lazy dog"
GaspTable: 1 65535 2 0
Encoding: UnicodeBmp
UnicodeInterp: none
NameList: AGL For New Fonts
DisplaySize: -48
AntiAlias: 1
FitToEm: 0
WinInfo: 9664 16 7
BeginPrivate: 0
EndPrivate
TeXData: 1 0 0 1048576 524288 349525 655360 1048576 349525 783286 444596 497025 792723 393216 433062 380633 303038 157286 324010 404750 52429 2506097 1059062 262144
BeginChars: 65539 136

StartChar: .notdef
Encoding: 65536 -1 0
Width: 3328
GlyphClass: 1
Flags: W
LayerCount: 2
Fore
SplineSet
448 127 m 1,0,-1
 448 269 l 1,1,-1
 305 269 l 1,2,-1
 305 127 l 1,3,-1
 448 127 l 1,0,-1
590 293 m 1,4,-1
 590 436 l 1,5,-1
 305 436 l 1,6,-1
 305 293 l 1,7,-1
 590 293 l 1,4,-1
448 459 m 1,8,-1
 448 602 l 1,9,-1
 305 602 l 1,10,-1
 305 459 l 1,11,-1
 448 459 l 1,8,-1
590 626 m 1,12,-1
 590 767 l 1,13,-1
 448 767 l 2,14,15
 388 767 388 767 347 726 c 0,16,17
 305 684 305 684 305 626 c 1,18,-1
 590 626 l 1,12,-1
0 0 m 1,19,-1
 0 896 l 1,20,-1
 896 896 l 1,21,-1
 896 0 l 1,22,-1
 0 0 l 1,19,-1
EndSplineSet
Validated: 1
EndChar

StartChar: exclam
Encoding: 33 33 4
Width: 1024
GlyphClass: 2
Flags: W
LayerCount: 2
Fore
SplineSet
384 0 m 1,0,-1
 384 128 l 1,1,-1
 640 128 l 1,2,-1
 640 0 l 1,3,-1
 384 0 l 1,0,-1
384 384 m 1,4,-1
 384 896 l 1,5,-1
 384 896 l 1,6,-1
 640 896 l 1,7,-1
 640 384 l 1,8,-1
 384 384 l 1,4,-1
EndSplineSet
Validated: 5
EndChar

StartChar: quotedbl
Encoding: 34 34 5
Width: 1024
GlyphClass: 2
Flags: W
LayerCount: 2
Fore
SplineSet
128 512 m 1,0,-1
 128 896 l 1,1,-1
 384 896 l 1,2,-1
 384 640 l 1,3,-1
 256 640 l 1,4,5
 256 640 256 640 256 512 c 1,6,7
 256 512 256 512 128 512 c 1,0,-1
640 512 m 1,8,-1
 640 896 l 1,9,-1
 896 896 l 1,10,-1
 896 640 l 1,11,-1
 768 640 l 1,12,13
 768 640 768 640 768 512 c 1,14,15
 768 512 768 512 640 512 c 1,8,-1
EndSplineSet
Validated: 1
EndChar

StartChar: numbersign
Encoding: 35 35 6
Width: 1024
GlyphClass: 2
Flags: W
LayerCount: 2
Fore
SplineSet
512 384 m 1,0,-1
 512 640 l 1,1,-1
 256 640 l 1,2,-1
 256 384 l 1,3,-1
 512 384 l 1,0,-1
128 0 m 1,4,-1
 128 256 l 1,5,-1
 0 256 l 1,6,-1
 0 384 l 1,7,-1
 128 384 l 1,8,-1
 128 640 l 1,9,-1
 0 640 l 1,10,-1
 0 768 l 1,11,-1
 128 768 l 1,12,-1
 128 896 l 1,13,-1
 256 896 l 1,14,-1
 256 768 l 1,15,-1
 512 768 l 1,16,-1
 512 896 l 1,17,-1
 640 896 l 1,18,-1
 640 768 l 1,19,-1
 768 768 l 1,20,-1
 768 640 l 1,21,-1
 640 640 l 1,22,-1
 640 384 l 1,23,-1
 768 384 l 1,24,-1
 768 256 l 1,25,-1
 640 256 l 1,26,-1
 640 0 l 1,27,-1
 512 0 l 1,28,-1
 512 256 l 1,29,-1
 256 256 l 1,30,-1
 256 0 l 1,31,-1
 128 0 l 1,4,-1
EndSplineSet
Validated: 1
EndChar

StartChar: dollar
Encoding: 36 36 7
Width: 1024
GlyphClass: 2
Flags: W
LayerCount: 2
Fore
SplineSet
640 256 m 1,0,-1
 640 384 l 1,1,-1
 768 384 l 1,2,-1
 768 256 l 1,3,-1
 640 256 l 1,0,-1
128 512 m 1,4,-1
 128 640 l 1,5,-1
 256 640 l 1,6,-1
 256 512 l 1,7,-1
 128 512 l 1,4,-1
384 0 m 1,8,-1
 384 128 l 1,9,-1
 128 128 l 1,10,-1
 128 256 l 1,11,-1
 384 256 l 1,12,-1
 384 384 l 1,13,-1
 256 384 l 1,14,-1
 256 512 l 1,15,-1
 384 512 l 1,16,-1
 384 640 l 1,17,-1
 256 640 l 1,18,-1
 256 768 l 1,19,-1
 384 768 l 1,20,-1
 384 896 l 1,21,-1
 512 896 l 1,22,-1
 512 768 l 1,23,-1
 768 768 l 1,24,-1
 768 640 l 1,25,-1
 512 640 l 1,26,-1
 512 512 l 1,27,-1
 640 512 l 1,28,-1
 640 384 l 1,29,-1
 512 384 l 1,30,-1
 512 256 l 1,31,-1
 640 256 l 1,32,-1
 640 128 l 1,33,-1
 512 128 l 1,34,-1
 512 0 l 1,35,-1
 384 0 l 1,8,-1
EndSplineSet
Validated: 5
EndChar

StartChar: percent
Encoding: 37 37 8
Width: 1024
GlyphClass: 2
Flags: W
LayerCount: 2
Fore
SplineSet
0 0 m 1,0,-1
 0 128 l 1,1,-1
 128 128 l 1,2,-1
 128 0 l 1,3,-1
 0 0 l 1,0,-1
640 0 m 1,4,-1
 640 128 l 1,5,-1
 768 128 l 1,6,-1
 768 0 l 1,7,-1
 640 0 l 1,4,-1
128 128 m 1,8,-1
 128 256 l 1,9,-1
 256 256 l 1,10,-1
 256 128 l 1,11,-1
 128 128 l 1,8,-1
512 128 m 1,12,-1
 512 256 l 1,13,-1
 640 256 l 1,14,-1
 640 128 l 1,15,-1
 512 128 l 1,12,-1
768 128 m 1,16,-1
 768 256 l 1,17,-1
 896 256 l 1,18,-1
 896 128 l 1,19,-1
 768 128 l 1,16,-1
256 256 m 1,20,-1
 256 384 l 1,21,-1
 384 384 l 1,22,-1
 384 256 l 1,23,-1
 256 256 l 1,20,-1
640 256 m 1,24,-1
 640 384 l 1,25,-1
 768 384 l 1,26,-1
 768 256 l 1,27,-1
 640 256 l 1,24,-1
384 384 m 1,28,-1
 384 512 l 1,29,-1
 512 512 l 1,30,-1
 512 384 l 1,31,-1
 384 384 l 1,28,-1
128 512 m 1,32,-1
 128 640 l 1,33,-1
 256 640 l 1,34,-1
 256 512 l 1,35,-1
 128 512 l 1,32,-1
512 512 m 1,36,-1
 512 640 l 1,37,-1
 640 640 l 1,38,-1
 640 512 l 1,39,-1
 512 512 l 1,36,-1
0 640 m 1,40,-1
 0 768 l 1,41,-1
 128 768 l 1,42,-1
 128 640 l 1,43,-1
 0 640 l 1,40,-1
256 640 m 1,44,-1
 256 768 l 1,45,-1
 384 768 l 1,46,-1
 384 640 l 1,47,-1
 256 640 l 1,44,-1
640 640 m 1,48,-1
 640 768 l 1,49,-1
 768 768 l 1,50,-1
 768 640 l 1,51,-1
 640 640 l 1,48,-1
128 768 m 1,52,-1
 128 896 l 1,53,-1
 256 896 l 1,54,-1
 256 768 l 1,55,-1
 128 768 l 1,52,-1
768 768 m 1,56,-1
 768 896 l 1,57,-1
 896 896 l 1,58,-1
 896 768 l 1,59,-1
 768 768 l 1,56,-1
EndSplineSet
Validated: 5
EndChar

StartChar: ampersand
Encoding: 38 38 9
Width: 1024
GlyphClass: 2
Flags: W
LayerCount: 2
Fore
SplineSet
768 0 m 1,0,-1
 768 128 l 1,1,-1
 896 128 l 1,2,-1
 896 0 l 1,3,-1
 768 0 l 1,0,-1
640 128 m 1,4,-1
 640 256 l 1,5,-1
 768 256 l 1,6,-1
 768 128 l 1,7,-1
 640 128 l 1,4,-1
768 256 m 1,8,-1
 768 384 l 1,9,-1
 896 384 l 1,10,-1
 896 256 l 1,11,-1
 768 256 l 1,8,-1
512 256 m 1,12,-1
 512 384 l 1,13,-1
 384 384 l 1,14,15
 384 384 384 384 384 128 c 1,16,17
 384 128 384 128 640 128 c 1,18,19
 640 128 640 128 640 0 c 1,20,21
 640 0 640 0 256 0 c 1,22,23
 256 0 256 0 256 128 c 1,24,25
 256 128 256 128 128 128 c 1,26,27
 128 128 128 128 128 384 c 1,28,29
 128 384 128 384 256 384 c 1,30,-1
 256 512 l 1,31,32
 256 512 256 512 128 512 c 1,33,34
 128 512 128 512 128 768 c 1,35,36
 128 768 128 768 256 768 c 1,37,-1
 256 896 l 1,38,39
 256 896 256 896 512 896 c 1,40,41
 512 896 512 896 512 768 c 1,42,43
 512 768 512 768 384 768 c 1,44,-1
 384 512 l 1,45,-1
 512 512 l 1,46,-1
 512 384 l 1,47,48
 512 384 512 384 640 384 c 1,49,50
 640 384 640 384 640 256 c 1,51,-1
 512 256 l 1,12,-1
512 512 m 1,52,-1
 512 768 l 1,53,-1
 640 768 l 1,54,-1
 640 512 l 1,55,-1
 512 512 l 1,52,-1
EndSplineSet
Validated: 5
EndChar

StartChar: quotesingle
Encoding: 39 39 10
Width: 1024
GlyphClass: 2
Flags: W
LayerCount: 2
Fore
SplineSet
384 512 m 1,0,-1
 384 640 l 1,1,-1
 512 640 l 1,2,-1
 512 512 l 1,3,-1
 384 512 l 1,0,-1
512 640 m 1,4,-1
 512 896 l 1,5,-1
 768 896 l 1,6,-1
 768 640 l 1,7,-1
 512 640 l 1,4,-1
EndSplineSet
Validated: 5
EndChar

StartChar: parenleft
Encoding: 40 40 11
Width: 1024
GlyphClass: 2
Flags: W
LayerCount: 2
Fore
SplineSet
384 0 m 1,0,-1
 384 128 l 1,1,-1
 640 128 l 1,2,-1
 640 0 l 1,3,-1
 384 0 l 1,0,-1
256 128 m 1,4,-1
 256 896 l 1,5,-1
 384 896 l 1,6,-1
 384 128 l 1,7,-1
 256 128 l 1,4,-1
384 896 m 1,8,-1
 384 1024 l 1,9,-1
 640 1024 l 1,10,-1
 640 896 l 1,11,-1
 384 896 l 1,8,-1
EndSplineSet
Validated: 5
EndChar

StartChar: parenright
Encoding: 41 41 12
Width: 1024
GlyphClass: 2
Flags: W
LayerCount: 2
Fore
SplineSet
256 0 m 1,0,-1
 256 128 l 1,1,-1
 512 128 l 1,2,-1
 512 0 l 1,3,-1
 256 0 l 1,0,-1
512 128 m 1,4,-1
 512 896 l 1,5,-1
 640 896 l 1,6,-1
 640 128 l 1,7,-1
 512 128 l 1,4,-1
256 896 m 1,8,-1
 256 1024 l 1,9,-1
 512 1024 l 1,10,-1
 512 896 l 1,11,-1
 256 896 l 1,8,-1
EndSplineSet
Validated: 5
EndChar

StartChar: asterisk
Encoding: 42 42 13
Width: 1024
GlyphClass: 2
Flags: W
LayerCount: 2
Fore
SplineSet
0 0 m 1,0,-1
 0 128 l 1,1,-1
 128 128 l 1,2,-1
 128 0 l 1,3,-1
 0 0 l 1,0,-1
768 0 m 1,4,-1
 768 128 l 1,5,-1
 896 128 l 1,6,-1
 896 0 l 1,7,-1
 768 0 l 1,4,-1
128 128 m 1,8,-1
 128 256 l 1,9,-1
 256 256 l 1,10,-1
 256 128 l 1,11,-1
 128 128 l 1,8,-1
640 128 m 1,12,-1
 640 256 l 1,13,-1
 768 256 l 1,14,-1
 768 128 l 1,15,-1
 640 128 l 1,12,-1
128 640 m 1,16,-1
 128 768 l 1,17,-1
 256 768 l 1,18,-1
 256 640 l 1,19,-1
 128 640 l 1,16,-1
640 640 m 1,20,-1
 640 768 l 1,21,-1
 768 768 l 1,22,-1
 768 640 l 1,23,-1
 640 640 l 1,20,-1
0 768 m 1,24,-1
 0 896 l 1,25,-1
 128 896 l 1,26,-1
 128 768 l 1,27,-1
 0 768 l 1,24,-1
384 0 m 1,28,-1
 384 256 l 1,29,-1
 256 256 l 1,30,-1
 256 384 l 1,31,-1
 0 384 l 1,32,-1
 0 512 l 1,33,-1
 256 512 l 1,34,-1
 256 640 l 1,35,-1
 384 640 l 1,36,-1
 384 896 l 1,37,-1
 512 896 l 1,38,-1
 512 640 l 1,39,-1
 640 640 l 1,40,-1
 640 512 l 1,41,-1
 896 512 l 1,42,-1
 896 384 l 1,43,-1
 640 384 l 1,44,-1
 640 256 l 1,45,-1
 512 256 l 1,46,-1
 512 0 l 1,47,-1
 384 0 l 1,28,-1
768 768 m 1,48,-1
 768 896 l 1,49,-1
 896 896 l 1,50,-1
 896 768 l 1,51,-1
 768 768 l 1,48,-1
EndSplineSet
Validated: 5
EndChar

StartChar: plus
Encoding: 43 43 14
Width: 1024
GlyphClass: 2
Flags: W
LayerCount: 2
Fore
SplineSet
384 0 m 1,0,-1
 384 384 l 1,1,-1
 0 384 l 1,2,-1
 0 512 l 1,3,-1
 384 512 l 1,4,-1
 384 896 l 1,5,-1
 512 896 l 1,6,-1
 512 512 l 1,7,-1
 896 512 l 1,8,-1
 896 384 l 1,9,-1
 512 384 l 1,10,-1
 512 0 l 1,11,-1
 384 0 l 1,0,-1
EndSplineSet
Validated: 1
EndChar

StartChar: comma
Encoding: 44 44 15
Width: 1024
GlyphClass: 2
Flags: W
LayerCount: 2
Fore
SplineSet
384 -128 m 1,0,-1
 384 0 l 1,1,-1
 512 0 l 1,2,-1
 512 -128 l 1,3,-1
 384 -128 l 1,0,-1
512 0 m 1,4,-1
 512 256 l 1,5,-1
 768 256 l 1,6,-1
 768 0 l 1,7,-1
 512 0 l 1,4,-1
EndSplineSet
Validated: 5
EndChar

StartChar: hyphen
Encoding: 45 45 16
Width: 1024
GlyphClass: 2
Flags: W
LayerCount: 2
Fore
SplineSet
128 384 m 1,0,-1
 128 512 l 1,1,-1
 896 512 l 1,2,-1
 896 384 l 1,3,-1
 128 384 l 1,0,-1
EndSplineSet
Validated: 1
EndChar

StartChar: period
Encoding: 46 46 17
Width: 1024
GlyphClass: 2
Flags: W
LayerCount: 2
Fore
SplineSet
384 0 m 1,0,-1
 384 256 l 1,1,-1
 640 256 l 1,2,-1
 640 0 l 1,3,-1
 384 0 l 1,0,-1
EndSplineSet
Validated: 1
EndChar

StartChar: slash
Encoding: 47 47 18
Width: 1024
GlyphClass: 2
Flags: W
LayerCount: 2
Fore
SplineSet
128 0 m 1,0,-1
 128 128 l 1,1,-1
 256 128 l 1,2,-1
 256 0 l 1,3,-1
 128 0 l 1,0,-1
256 128 m 1,4,-1
 256 256 l 1,5,-1
 384 256 l 1,6,-1
 384 128 l 1,7,-1
 256 128 l 1,4,-1
384 256 m 1,8,-1
 384 384 l 1,9,-1
 512 384 l 1,10,-1
 512 256 l 1,11,-1
 384 256 l 1,8,-1
512 384 m 1,12,-1
 512 512 l 1,13,-1
 640 512 l 1,14,-1
 640 384 l 1,15,-1
 512 384 l 1,12,-1
640 512 m 1,16,-1
 640 640 l 1,17,-1
 768 640 l 1,18,-1
 768 512 l 1,19,-1
 640 512 l 1,16,-1
768 640 m 1,20,-1
 768 768 l 1,21,-1
 896 768 l 1,22,-1
 896 640 l 1,23,-1
 768 640 l 1,20,-1
EndSplineSet
Validated: 5
EndChar

StartChar: zero
Encoding: 48 48 19
Width: 1024
GlyphClass: 2
Flags: W
LayerCount: 2
Fore
SplineSet
384 384 m 1,0,-1
 384 512 l 1,1,-1
 512 512 l 1,2,-1
 512 384 l 1,3,-1
 384 384 l 1,0,-1
640 128 m 1,4,-1
 640 512 l 1,5,-1
 512 512 l 1,6,-1
 512 640 l 1,7,-1
 640 640 l 1,8,-1
 640 768 l 1,9,-1
 256 768 l 1,10,-1
 256 384 l 1,11,-1
 384 384 l 1,12,-1
 384 256 l 1,13,-1
 256 256 l 1,14,-1
 256 128 l 1,15,-1
 640 128 l 1,4,-1
128 0 m 1,16,-1
 128 128 l 1,17,-1
 0 128 l 1,18,-1
 0 768 l 1,19,-1
 128 768 l 1,20,-1
 128 896 l 1,21,-1
 768 896 l 1,22,-1
 768 768 l 1,23,-1
 896 768 l 1,24,-1
 896 128 l 1,25,-1
 768 128 l 1,26,-1
 768 0 l 1,27,-1
 128 0 l 1,16,-1
EndSplineSet
Validated: 5
EndChar

StartChar: one
Encoding: 49 49 20
Width: 1024
GlyphClass: 2
Flags: W
LayerCount: 2
Fore
SplineSet
384 0 m 1,0,-1
 384 640 l 1,1,-1
 256 640 l 1,2,-1
 256 768 l 1,3,-1
 384 768 l 1,4,-1
 384 896 l 1,5,-1
 640 896 l 1,6,-1
 640 0 l 1,7,-1
 384 0 l 1,0,-1
EndSplineSet
Validated: 1
EndChar

StartChar: two
Encoding: 50 50 21
Width: 1024
GlyphClass: 2
Flags: W
LayerCount: 2
Fore
SplineSet
0 0 m 1,0,-1
 0 256 l 1,1,-1
 128 256 l 1,2,-1
 128 384 l 1,3,-1
 512 384 l 1,4,-1
 512 512 l 1,5,-1
 640 512 l 1,6,-1
 640 768 l 1,7,-1
 256 768 l 1,8,-1
 256 640 l 1,9,-1
 0 640 l 1,10,-1
 0 768 l 1,11,-1
 128 768 l 1,12,-1
 128 896 l 1,13,-1
 768 896 l 1,14,-1
 768 768 l 1,15,-1
 896 768 l 1,16,-1
 896 512 l 1,17,-1
 768 512 l 1,18,-1
 768 384 l 1,19,-1
 512 384 l 1,20,-1
 512 256 l 1,21,-1
 256 256 l 1,22,-1
 256 128 l 1,23,-1
 640 128 l 1,24,25
 640 128 640 128 640 256 c 1,26,27
 640 256 640 256 896 256 c 1,28,-1
 896 0 l 1,29,-1
 0 0 l 1,0,-1
EndSplineSet
Validated: 5
EndChar

StartChar: three
Encoding: 51 51 22
Width: 1024
GlyphClass: 2
Flags: W
LayerCount: 2
Fore
SplineSet
128 0 m 1,0,-1
 128 128 l 1,1,-1
 0 128 l 1,2,-1
 0 384 l 5,3,-1
 256 384 l 5,4,-1
 256 128 l 1,5,-1
 640 128 l 1,6,-1
 640 384 l 1,7,-1
 384 384 l 1,8,-1
 384 512 l 1,9,-1
 640 512 l 1,10,-1
 640 768 l 1,11,-1
 256 768 l 1,12,-1
 256 512 l 1,13,-1
 0 512 l 1,14,-1
 0 768 l 1,15,-1
 128 768 l 1,16,-1
 128 896 l 1,17,-1
 768 896 l 1,18,-1
 768 768 l 1,19,-1
 896 768 l 1,20,-1
 896 512 l 1,21,-1
 768 512 l 1,22,-1
 768 384 l 1,23,-1
 896 384 l 1,24,-1
 896 128 l 1,25,-1
 768 128 l 1,26,-1
 768 0 l 1,27,-1
 128 0 l 1,0,-1
EndSplineSet
Validated: 1
EndChar

StartChar: four
Encoding: 52 52 23
Width: 1024
GlyphClass: 2
Flags: W
LayerCount: 2
Fore
SplineSet
512 0 m 1,0,-1
 512 128 l 1,1,-1
 0 128 l 1,2,-1
 0 256 l 1,3,-1
 128 254 l 1,4,5
 128 254 128 254 128 384 c 1,6,7
 128 384 128 384 256 384 c 1,8,9
 256 384 256 384 256 512 c 1,10,11
 256 512 256 512 384 512 c 1,12,13
 384 512 384 512 384 384 c 1,14,15
 384 384 384 384 256 384 c 1,16,17
 256 384 256 384 256 256 c 1,18,-1
 512 256 l 1,19,-1
 512 512 l 1,20,21
 512 512 512 512 384 512 c 1,22,23
 384 512 384 512 384 640 c 1,24,25
 384 640 384 640 512 640 c 1,26,27
 512 640 512 640 512 768 c 1,28,29
 512 768 512 768 640 768 c 1,30,-1
 640 896 l 1,31,32
 640 896 640 896 768 896 c 1,33,-1
 768 256 l 1,34,-1
 896 256 l 1,35,-1
 896 128 l 1,36,-1
 768 128 l 1,37,-1
 768 0 l 1,38,-1
 512 0 l 1,0,-1
EndSplineSet
Validated: 5
EndChar

StartChar: five
Encoding: 53 53 24
Width: 1024
GlyphClass: 2
Flags: W
LayerCount: 2
Fore
SplineSet
128 0 m 1,0,-1
 128 128 l 1,1,-1
 0 128 l 1,2,-1
 0 384 l 1,3,-1
 256 384 l 1,4,-1
 256 128 l 1,5,-1
 640 128 l 1,6,-1
 640 512 l 1,7,-1
 0 512 l 1,8,-1
 0 896 l 1,9,-1
 896 896 l 1,10,-1
 896 768 l 1,11,-1
 256 768 l 1,12,-1
 256 640 l 1,13,-1
 768 640 l 1,14,-1
 768 512 l 1,15,-1
 896 512 l 1,16,-1
 896 128 l 1,17,-1
 768 128 l 1,18,-1
 768 0 l 1,19,-1
 128 0 l 1,0,-1
EndSplineSet
Validated: 1
EndChar

StartChar: six
Encoding: 54 54 25
Width: 1024
GlyphClass: 2
Flags: W
LayerCount: 2
Fore
SplineSet
640 128 m 1,0,-1
 640 384 l 1,1,-1
 256 384 l 1,2,-1
 256 128 l 1,3,-1
 640 128 l 1,0,-1
128 0 m 1,4,-1
 128 128 l 1,5,-1
 0 128 l 1,6,-1
 0 768 l 1,7,-1
 128 768 l 1,8,-1
 128 896 l 1,9,-1
 768 896 l 1,10,-1
 768 768 l 1,11,-1
 896 768 l 1,12,-1
 896 640 l 1,13,-1
 640 640 l 1,14,-1
 640 768 l 1,15,-1
 256 768 l 1,16,-1
 256 512 l 1,17,-1
 768 512 l 1,18,-1
 768 384 l 1,19,-1
 896 384 l 1,20,-1
 896 128 l 1,21,-1
 768 128 l 1,22,-1
 768 0 l 1,23,-1
 128 0 l 1,4,-1
EndSplineSet
Validated: 1
EndChar

StartChar: seven
Encoding: 55 55 26
Width: 1024
GlyphClass: 2
Flags: W
LayerCount: 2
Fore
SplineSet
256 0 m 1,0,-1
 256 384 l 1,1,-1
 512 384 l 1,2,-1
 512 512 l 1,3,-1
 640 512 l 1,4,-1
 640 768 l 1,5,-1
 256 768 l 1,6,7
 256 768 256 768 256 640 c 1,8,9
 256 640 256 640 0 640 c 1,10,-1
 0 896 l 1,11,-1
 896 896 l 1,12,-1
 896 640 l 1,13,-1
 768 640 l 1,14,-1
 768 512 l 1,15,-1
 640 512 l 1,16,-1
 640 384 l 1,17,18
 640 384 640 384 512 384 c 1,19,20
 512 384 512 384 512 0 c 1,21,-1
 256 0 l 1,0,-1
EndSplineSet
Validated: 5
EndChar

StartChar: eight
Encoding: 56 56 27
Width: 1024
GlyphClass: 2
Flags: W
LayerCount: 2
Fore
SplineSet
640 128 m 1,0,-1
 640 384 l 1,1,-1
 256 384 l 1,2,-1
 256 128 l 1,3,-1
 640 128 l 1,0,-1
640 512 m 1,4,-1
 640 768 l 1,5,-1
 256 768 l 1,6,-1
 256 512 l 1,7,-1
 640 512 l 1,4,-1
128 0 m 1,8,-1
 128 128 l 1,9,-1
 0 128 l 1,10,-1
 0 384 l 1,11,-1
 128 384 l 1,12,-1
 128 512 l 1,13,-1
 0 512 l 1,14,-1
 0 768 l 1,15,-1
 128 768 l 1,16,-1
 128 896 l 1,17,-1
 768 896 l 1,18,-1
 768 768 l 1,19,-1
 896 768 l 1,20,-1
 896 512 l 1,21,-1
 768 512 l 1,22,-1
 768 384 l 1,23,-1
 896 384 l 1,24,-1
 896 128 l 1,25,-1
 768 128 l 1,26,-1
 768 0 l 1,27,-1
 128 0 l 1,8,-1
EndSplineSet
Validated: 1
EndChar

StartChar: nine
Encoding: 57 57 28
Width: 1024
GlyphClass: 2
Flags: W
LayerCount: 2
Fore
SplineSet
640 512 m 1,0,-1
 640 768 l 1,1,-1
 256 768 l 1,2,-1
 256 512 l 1,3,-1
 640 512 l 1,0,-1
128 0 m 1,4,-1
 128 128 l 1,5,-1
 0 128 l 1,6,-1
 0 256 l 1,7,-1
 256 256 l 1,8,-1
 256 128 l 1,9,-1
 640 128 l 1,10,-1
 640 384 l 1,11,-1
 128 384 l 1,12,-1
 128 512 l 1,13,-1
 0 512 l 1,14,-1
 0 768 l 1,15,-1
 128 768 l 1,16,-1
 128 896 l 1,17,-1
 768 896 l 1,18,-1
 768 768 l 1,19,-1
 896 768 l 1,20,-1
 896 128 l 1,21,-1
 768 128 l 1,22,-1
 768 0 l 1,23,-1
 128 0 l 1,4,-1
EndSplineSet
Validated: 1
EndChar

StartChar: colon
Encoding: 58 58 29
Width: 1024
GlyphClass: 2
Flags: W
LayerCount: 2
Fore
SplineSet
384 128 m 1,0,-1
 384 256 l 5,1,-1
 640 256 l 5,2,-1
 640 128 l 1,3,-1
 384 128 l 1,0,-1
384 512 m 1,4,-1
 384 640 l 5,5,-1
 640 640 l 5,6,-1
 640 512 l 1,7,-1
 384 512 l 1,4,-1
EndSplineSet
Validated: 1
EndChar

StartChar: semicolon
Encoding: 59 59 30
Width: 1024
GlyphClass: 2
Flags: W
LayerCount: 2
Fore
SplineSet
256 -128 m 1,0,-1
 256 0 l 1,1,-1
 384 0 l 1,2,-1
 384 -128 l 1,3,-1
 256 -128 l 1,0,-1
384 0 m 1,4,-1
 384 256 l 1,5,-1
 640 256 l 1,6,-1
 640 0 l 1,7,-1
 384 0 l 1,4,-1
384 512 m 1,8,-1
 384 640 l 1,9,-1
 640 640 l 1,10,-1
 640 512 l 1,11,-1
 384 512 l 1,8,-1
EndSplineSet
Validated: 5
EndChar

StartChar: less
Encoding: 60 60 31
Width: 1024
GlyphClass: 2
Flags: W
LayerCount: 2
Fore
SplineSet
640 0 m 1,0,-1
 640 128 l 1,1,-1
 768 128 l 1,2,-1
 768 0 l 1,3,-1
 640 0 l 1,0,-1
512 128 m 1,4,-1
 512 256 l 1,5,-1
 640 256 l 1,6,-1
 640 128 l 1,7,-1
 512 128 l 1,4,-1
384 256 m 1,8,-1
 384 384 l 1,9,-1
 512 384 l 1,10,-1
 512 256 l 1,11,-1
 384 256 l 1,8,-1
256 384 m 1,12,-1
 256 512 l 1,13,-1
 384 512 l 1,14,-1
 384 384 l 1,15,-1
 256 384 l 1,12,-1
384 512 m 1,16,-1
 384 640 l 1,17,-1
 512 640 l 1,18,-1
 512 512 l 1,19,-1
 384 512 l 1,16,-1
512 640 m 1,20,-1
 512 768 l 1,21,-1
 640 768 l 1,22,-1
 640 640 l 1,23,-1
 512 640 l 1,20,-1
640 768 m 1,24,-1
 640 896 l 1,25,-1
 768 896 l 1,26,-1
 768 768 l 1,27,-1
 640 768 l 1,24,-1
EndSplineSet
Validated: 5
EndChar

StartChar: equal
Encoding: 61 61 32
Width: 1024
GlyphClass: 2
Flags: W
LayerCount: 2
Fore
SplineSet
128 256 m 1,0,-1
 128 384 l 1,1,-1
 768 384 l 1,2,-1
 768 256 l 1,3,-1
 128 256 l 1,0,-1
128 512 m 1,4,-1
 128 640 l 1,5,-1
 768 640 l 1,6,-1
 768 512 l 1,7,-1
 128 512 l 1,4,-1
EndSplineSet
Validated: 1
EndChar

StartChar: greater
Encoding: 62 62 33
Width: 1024
GlyphClass: 2
Flags: W
LayerCount: 2
Fore
SplineSet
256 0 m 1,0,-1
 256 128 l 1,1,-1
 384 128 l 1,2,-1
 384 0 l 1,3,-1
 256 0 l 1,0,-1
384 128 m 1,4,-1
 384 256 l 1,5,-1
 512 256 l 1,6,-1
 512 128 l 1,7,-1
 384 128 l 1,4,-1
512 256 m 1,8,-1
 512 384 l 1,9,-1
 640 384 l 1,10,-1
 640 256 l 1,11,-1
 512 256 l 1,8,-1
640 384 m 1,12,-1
 640 512 l 1,13,-1
 768 512 l 1,14,-1
 768 384 l 1,15,-1
 640 384 l 1,12,-1
512 512 m 1,16,-1
 512 640 l 1,17,-1
 640 640 l 1,18,-1
 640 512 l 1,19,-1
 512 512 l 1,16,-1
384 640 m 1,20,-1
 384 768 l 1,21,-1
 512 768 l 1,22,-1
 512 640 l 1,23,-1
 384 640 l 1,20,-1
256 768 m 1,24,-1
 256 896 l 1,25,-1
 384 896 l 1,26,-1
 384 768 l 1,27,-1
 256 768 l 1,24,-1
EndSplineSet
Validated: 5
EndChar

StartChar: question
Encoding: 63 63 34
Width: 1024
GlyphClass: 2
Flags: W
LayerCount: 2
Fore
SplineSet
384 0 m 1,0,-1
 384 128 l 1,1,-1
 640 128 l 1,2,-1
 640 0 l 1,3,-1
 384 0 l 1,0,-1
384 256 m 1,4,-1
 384 384 l 1,5,-1
 512 384 l 1,6,-1
 512 512 l 1,7,-1
 640 512 l 1,8,-1
 640 768 l 1,9,-1
 256 768 l 1,10,-1
 256 640 l 1,11,-1
 128 640 l 1,12,-1
 128 768 l 1,13,-1
 256 768 l 1,14,-1
 256 896 l 1,15,-1
 768 896 l 1,16,-1
 768 768 l 1,17,-1
 896 768 l 1,18,-1
 896 512 l 1,19,-1
 768 512 l 1,20,-1
 768 384 l 1,21,-1
 512 384 l 1,22,-1
 512 256 l 1,23,-1
 384 256 l 1,4,-1
EndSplineSet
Validated: 5
EndChar

StartChar: at
Encoding: 64 64 35
Width: 1024
GlyphClass: 2
Flags: W
LayerCount: 2
Fore
SplineSet
128 0 m 1,0,-1
 128 128 l 1,1,-1
 768 128 l 1,2,-1
 768 0 l 1,3,-1
 128 0 l 1,0,-1
256 256 m 1,4,-1
 256 512 l 1,5,-1
 384 512 l 1,6,-1
 384 384 l 1,7,-1
 768 384 l 1,8,-1
 768 256 l 1,9,-1
 256 256 l 1,4,-1
0 128 m 1,10,-1
 0 640 l 1,11,-1
 128 640 l 1,12,-1
 128 128 l 1,13,-1
 0 128 l 1,10,-1
384 512 m 1,14,-1
 384 640 l 1,15,-1
 640 640 l 1,16,-1
 640 512 l 1,17,-1
 384 512 l 1,14,-1
128 640 m 1,18,-1
 128 768 l 1,19,-1
 256 768 l 1,20,-1
 256 640 l 1,21,-1
 128 640 l 1,18,-1
768 384 m 1,22,-1
 768 768 l 1,23,-1
 896 768 l 1,24,-1
 896 384 l 1,25,-1
 768 384 l 1,22,-1
256 768 m 1,26,-1
 256 896 l 1,27,-1
 768 896 l 1,28,-1
 768 768 l 1,29,-1
 256 768 l 1,26,-1
EndSplineSet
Validated: 5
EndChar

StartChar: A
Encoding: 65 65 36
Width: 1024
GlyphClass: 2
Flags: W
LayerCount: 2
Fore
SplineSet
640 384 m 1,0,-1
 640 640 l 1,1,-1
 512 640 l 1,2,3
 512 640 512 640 512 768 c 1,4,5
 512 768 512 768 384 768 c 1,6,7
 384 768 384 768 384 640 c 1,8,9
 384 640 384 640 256 640 c 1,10,-1
 256 384 l 1,11,-1
 640 384 l 1,0,-1
0 0 m 1,12,-1
 0 640 l 1,13,14
 0 640 0 640 128 640 c 1,15,-1
 128 768 l 1,16,17
 128 768 128 768 256 768 c 1,18,-1
 256 896 l 1,19,-1
 640 896 l 1,20,-1
 640 768 l 1,21,-1
 768 768 l 1,22,23
 768 768 768 768 768 640 c 1,24,-1
 896 640 l 1,25,26
 896 640 896 640 896 0 c 1,27,-1
 640 0 l 1,28,-1
 640 256 l 1,29,-1
 256 256 l 1,30,-1
 256 0 l 1,31,-1
 0 0 l 1,12,-1
EndSplineSet
Validated: 1
EndChar

StartChar: B
Encoding: 66 66 37
Width: 1024
GlyphClass: 2
Flags: W
LayerCount: 2
Fore
SplineSet
640 128 m 1,0,-1
 640 384 l 1,1,-1
 256 384 l 1,2,-1
 256 128 l 1,3,-1
 640 128 l 1,0,-1
640 512 m 1,4,-1
 640 768 l 1,5,-1
 256 768 l 1,6,-1
 256 512 l 1,7,-1
 640 512 l 1,4,-1
0 0 m 1,8,-1
 0 896 l 1,9,-1
 768 896 l 1,10,-1
 768 768 l 1,11,-1
 896 768 l 1,12,-1
 896 512 l 1,13,-1
 768 512 l 1,14,-1
 768 384 l 1,15,-1
 896 384 l 1,16,-1
 896 128 l 1,17,-1
 768 128 l 1,18,-1
 768 0 l 1,19,-1
 0 0 l 1,8,-1
EndSplineSet
Validated: 1
EndChar

StartChar: C
Encoding: 67 67 38
Width: 1024
GlyphClass: 2
Flags: W
LayerCount: 2
Fore
SplineSet
128 0 m 1,0,-1
 128 128 l 1,1,-1
 0 128 l 1,2,-1
 0 768 l 1,3,-1
 128 768 l 1,4,-1
 128 896 l 1,5,-1
 768 896 l 1,6,-1
 768 768 l 1,7,-1
 896 768 l 1,8,-1
 896 512 l 1,9,-1
 640 512 l 1,10,-1
 640 768 l 1,11,-1
 256 768 l 1,12,-1
 256 128 l 1,13,-1
 640 128 l 1,14,-1
 640 384 l 1,15,-1
 896 384 l 1,16,-1
 896 128 l 1,17,-1
 768 128 l 1,18,-1
 768 0 l 1,19,-1
 128 0 l 1,0,-1
EndSplineSet
Validated: 1
EndChar

StartChar: D
Encoding: 68 68 39
Width: 1024
GlyphClass: 2
Flags: W
LayerCount: 2
Fore
SplineSet
640 128 m 1,0,-1
 640 768 l 1,1,-1
 256 768 l 1,2,-1
 256 128 l 1,3,-1
 640 128 l 1,0,-1
0 0 m 1,4,-1
 0 896 l 1,5,-1
 768 896 l 1,6,-1
 768 768 l 1,7,-1
 896 768 l 1,8,-1
 896 128 l 1,9,-1
 768 128 l 1,10,-1
 768 0 l 1,11,-1
 0 0 l 1,4,-1
EndSplineSet
Validated: 1
EndChar

StartChar: E
Encoding: 69 69 40
Width: 1024
GlyphClass: 2
Flags: W
LayerCount: 2
Fore
SplineSet
0 0 m 1,0,-1
 0 896 l 1,1,-1
 896 896 l 1,2,-1
 896 768 l 1,3,-1
 256 768 l 1,4,-1
 256 512 l 1,5,-1
 768 512 l 1,6,-1
 768 384 l 1,7,-1
 256 384 l 1,8,-1
 256 128 l 1,9,-1
 896 128 l 1,10,-1
 896 0 l 1,11,-1
 0 0 l 1,0,-1
EndSplineSet
Validated: 1
EndChar

StartChar: F
Encoding: 70 70 41
Width: 1024
GlyphClass: 2
Flags: W
LayerCount: 2
Fore
SplineSet
0 0 m 1,0,-1
 0 896 l 1,1,-1
 896 896 l 1,2,-1
 896 768 l 1,3,-1
 256 768 l 1,4,-1
 256 512 l 1,5,-1
 768 512 l 1,6,-1
 768 384 l 1,7,-1
 256 384 l 1,8,-1
 256 0 l 1,9,-1
 0 0 l 1,0,-1
EndSplineSet
Validated: 1
EndChar

StartChar: G
Encoding: 71 71 42
Width: 1024
GlyphClass: 2
Flags: W
LayerCount: 2
Fore
SplineSet
128 0 m 1,0,-1
 128 128 l 1,1,-1
 0 128 l 1,2,-1
 0 768 l 1,3,-1
 128 768 l 1,4,-1
 128 896 l 1,5,-1
 768 896 l 1,6,-1
 768 768 l 1,7,-1
 896 768 l 1,8,-1
 896 640 l 1,9,-1
 640 640 l 1,10,-1
 640 768 l 1,11,-1
 256 768 l 1,12,-1
 256 128 l 1,13,-1
 640 128 l 1,14,-1
 640 384 l 1,15,-1
 384 384 l 1,16,-1
 384 512 l 1,17,-1
 896 512 l 1,18,-1
 896 128 l 1,19,-1
 768 128 l 1,20,-1
 768 0 l 1,21,-1
 128 0 l 1,0,-1
EndSplineSet
Validated: 1
EndChar

StartChar: H
Encoding: 72 72 43
Width: 1024
GlyphClass: 2
Flags: W
LayerCount: 2
Fore
SplineSet
0 0 m 1,0,-1
 0 896 l 1,1,-1
 256 896 l 1,2,-1
 256 512 l 1,3,-1
 640 512 l 1,4,-1
 640 896 l 1,5,-1
 896 896 l 1,6,-1
 896 0 l 1,7,-1
 640 0 l 1,8,-1
 640 384 l 1,9,-1
 256 384 l 1,10,-1
 256 0 l 1,11,-1
 0 0 l 1,0,-1
EndSplineSet
Validated: 1
EndChar

StartChar: I
Encoding: 73 73 44
Width: 1024
GlyphClass: 2
Flags: W
LayerCount: 2
Fore
SplineSet
256 0 m 1,0,-1
 256 128 l 1,1,2
 256 128 256 128 384 128 c 1,3,4
 384 128 384 128 384 768 c 1,5,6
 384 768 384 768 256 768 c 1,7,8
 256 768 256 768 256 896 c 1,9,-1
 768 896 l 1,10,-1
 768 768 l 1,11,12
 768 768 768 768 640 768 c 1,13,14
 640 768 640 768 640 128 c 1,15,16
 640 128 640 128 768 128 c 1,17,18
 768 128 768 128 768 0 c 1,19,-1
 256 0 l 1,0,-1
EndSplineSet
Validated: 1
EndChar

StartChar: J
Encoding: 74 74 45
Width: 1024
GlyphClass: 2
Flags: W
LayerCount: 2
Fore
SplineSet
128 0 m 1,0,-1
 128 128 l 1,1,-1
 0 128 l 1,2,-1
 0 384 l 1,3,-1
 256 384 l 1,4,-1
 256 128 l 1,5,-1
 512 128 l 1,6,-1
 512 896 l 1,7,-1
 768 896 l 1,8,-1
 768 128 l 1,9,-1
 640 128 l 1,10,-1
 640 0 l 1,11,-1
 128 0 l 1,0,-1
EndSplineSet
Validated: 1
EndChar

StartChar: K
Encoding: 75 75 46
Width: 1024
GlyphClass: 2
Flags: W
LayerCount: 2
Fore
SplineSet
0 0 m 1,0,-1
 0 896 l 1,1,-1
 256 896 l 1,2,-1
 256 512 l 1,3,-1
 512 512 l 1,4,-1
 512 640 l 1,5,-1
 640 640 l 1,6,-1
 640 768 l 1,7,-1
 768 768 l 1,8,-1
 768 896 l 1,9,-1
 896 896 l 1,10,-1
 896 768 l 1,11,-1
 768 768 l 1,12,-1
 768 640 l 1,13,-1
 640 640 l 1,14,-1
 640 512 l 1,15,-1
 512 512 l 1,16,-1
 512 384 l 1,17,-1
 640 384 l 1,18,-1
 640 256 l 1,19,-1
 768 256 l 1,20,-1
 768 128 l 1,21,-1
 896 128 l 1,22,-1
 896 0 l 1,23,-1
 640 0 l 1,24,-1
 640 128 l 1,25,-1
 512 128 l 1,26,-1
 512 256 l 1,27,-1
 384 256 l 1,28,-1
 384 256 l 1,29,-1
 256 256 l 1,30,-1
 256 0 l 1,31,-1
 0 0 l 1,0,-1
EndSplineSet
Validated: 5
EndChar

StartChar: L
Encoding: 76 76 47
Width: 1024
GlyphClass: 2
Flags: W
LayerCount: 2
Fore
SplineSet
0 0 m 1,0,-1
 0 896 l 1,1,-1
 256 896 l 1,2,-1
 256 128 l 1,3,-1
 896 128 l 1,4,-1
 896 0 l 1,5,-1
 0 0 l 1,0,-1
EndSplineSet
Validated: 1
EndChar

StartChar: M
Encoding: 77 77 48
Width: 1024
GlyphClass: 2
Flags: W
LayerCount: 2
Fore
SplineSet
0 0 m 1,0,-1
 0 896 l 1,1,-1
 128 896 l 1,2,3
 128 896 128 896 128 768 c 1,4,5
 128 768 128 768 256 768 c 1,6,-1
 256 640 l 1,7,-1
 384 640 l 1,8,-1
 384 512 l 1,9,-1
 512 512 l 1,10,-1
 512 640 l 1,11,-1
 640 640 l 1,12,-1
 640 768 l 1,13,-1
 768 768 l 1,14,15
 768 768 768 768 768 896 c 1,16,17
 768 896 768 896 896 896 c 1,18,-1
 896 0 l 1,19,-1
 640 0 l 1,20,-1
 640 512 l 1,21,-1
 512 512 l 1,22,-1
 512 384 l 1,23,-1
 384 384 l 1,24,-1
 384 512 l 1,25,-1
 256 512 l 1,26,-1
 256 0 l 1,27,-1
 0 0 l 1,0,-1
EndSplineSet
Validated: 5
EndChar

StartChar: N
Encoding: 78 78 49
Width: 1024
GlyphClass: 2
Flags: W
LayerCount: 2
Fore
SplineSet
0 0 m 1,0,-1
 0 896 l 1,1,-1
 256 896 l 1,2,-1
 256 768 l 1,3,-1
 384 768 l 1,4,-1
 384 640 l 1,5,-1
 512 640 l 1,6,-1
 512 512 l 1,7,-1
 640 512 l 1,8,-1
 640 896 l 1,9,-1
 896 896 l 1,10,-1
 896 0 l 1,11,-1
 640 0 l 1,12,-1
 640 384 l 1,13,-1
 512 384 l 1,14,-1
 512 512 l 1,15,-1
 384 512 l 1,16,-1
 384 640 l 1,17,-1
 256 640 l 1,18,-1
 256 0 l 1,19,-1
 0 0 l 1,0,-1
EndSplineSet
Validated: 5
EndChar

StartChar: O
Encoding: 79 79 50
Width: 1024
GlyphClass: 2
Flags: W
LayerCount: 2
Fore
SplineSet
640 128 m 1,0,-1
 640 768 l 1,1,-1
 256 768 l 1,2,-1
 256 128 l 1,3,-1
 640 128 l 1,0,-1
128 0 m 1,4,-1
 128 128 l 1,5,-1
 0 128 l 1,6,-1
 0 768 l 1,7,-1
 128 768 l 1,8,-1
 128 896 l 1,9,-1
 768 896 l 1,10,-1
 768 768 l 1,11,-1
 896 768 l 1,12,-1
 896 128 l 1,13,-1
 768 128 l 1,14,-1
 768 0 l 1,15,-1
 128 0 l 1,4,-1
EndSplineSet
Validated: 1
EndChar

StartChar: P
Encoding: 80 80 51
Width: 1024
GlyphClass: 2
Flags: W
LayerCount: 2
Fore
SplineSet
640 512 m 1,0,-1
 640 768 l 1,1,-1
 256 768 l 1,2,-1
 256 512 l 1,3,-1
 640 512 l 1,0,-1
0 0 m 1,4,-1
 0 896 l 1,5,-1
 768 896 l 1,6,-1
 768 768 l 1,7,-1
 896 768 l 1,8,-1
 896 512 l 1,9,-1
 768 512 l 1,10,-1
 768 384 l 1,11,-1
 256 384 l 1,12,-1
 256 0 l 1,13,-1
 0 0 l 1,4,-1
EndSplineSet
Validated: 1
EndChar

StartChar: Q
Encoding: 81 81 52
Width: 1024
GlyphClass: 2
Flags: W
LayerCount: 2
Fore
SplineSet
768 0 m 1,0,-1
 768 128 l 1,1,-1
 896 128 l 1,2,-1
 896 0 l 1,3,-1
 768 0 l 1,0,-1
640 128 m 1,4,-1
 640 256 l 1,5,-1
 256 256 l 1,6,-1
 256 384 l 1,7,-1
 640 384 l 1,8,-1
 640 768 l 1,9,-1
 256 768 l 1,10,-1
 256 128 l 1,11,-1
 640 128 l 1,4,-1
128 0 m 1,12,-1
 128 128 l 1,13,-1
 0 128 l 1,14,-1
 0 768 l 1,15,-1
 128 768 l 1,16,-1
 128 896 l 1,17,-1
 768 896 l 1,18,-1
 768 768 l 1,19,-1
 896 768 l 1,20,-1
 896 256 l 1,21,-1
 768 256 l 1,22,-1
 768 128 l 1,23,-1
 640 128 l 1,24,-1
 640 0 l 1,25,-1
 128 0 l 1,12,-1
EndSplineSet
Validated: 5
EndChar

StartChar: R
Encoding: 82 82 53
Width: 1024
GlyphClass: 2
Flags: W
LayerCount: 2
Fore
SplineSet
640 512 m 1,0,-1
 640 768 l 1,1,-1
 256 768 l 1,2,-1
 256 512 l 1,3,-1
 640 512 l 1,0,-1
0 0 m 1,4,-1
 0 896 l 1,5,-1
 768 896 l 1,6,-1
 768 768 l 1,7,-1
 896 768 l 1,8,-1
 896 512 l 1,9,-1
 768 512 l 1,10,-1
 768 384 l 1,11,12
 768 384 768 384 640 384 c 1,13,14
 640 384 640 384 640 256 c 1,15,16
 640 256 640 256 768 256 c 1,17,18
 768 256 768 256 768 128 c 1,19,-1
 896 128 l 1,20,-1
 896 0 l 1,21,-1
 640 0 l 1,22,-1
 640 256 l 1,23,-1
 512 256 l 1,24,-1
 512 384 l 1,25,-1
 256 384 l 1,26,-1
 256 0 l 1,27,-1
 0 0 l 1,4,-1
EndSplineSet
Validated: 5
EndChar

StartChar: S
Encoding: 83 83 54
Width: 1024
GlyphClass: 2
Flags: W
LayerCount: 2
Fore
SplineSet
128 0 m 1,0,-1
 128 128 l 1,1,-1
 0 128 l 1,2,-1
 0 256 l 1,3,-1
 256 256 l 1,4,-1
 256 128 l 1,5,-1
 640 128 l 1,6,-1
 640 384 l 1,7,-1
 128 384 l 1,8,-1
 128 512 l 1,9,-1
 0 512 l 1,10,-1
 0 768 l 1,11,-1
 128 768 l 1,12,-1
 128 896 l 1,13,-1
 768 896 l 1,14,-1
 768 768 l 1,15,-1
 896 768 l 1,16,-1
 896 640 l 1,17,-1
 640 640 l 1,18,-1
 640 768 l 1,19,-1
 256 768 l 1,20,-1
 256 512 l 1,21,-1
 768 512 l 1,22,-1
 768 384 l 1,23,-1
 896 384 l 1,24,-1
 896 128 l 1,25,-1
 768 128 l 1,26,-1
 768 0 l 1,27,-1
 128 0 l 1,0,-1
EndSplineSet
Validated: 1
EndChar

StartChar: T
Encoding: 84 84 55
Width: 1024
GlyphClass: 2
Flags: W
LayerCount: 2
Fore
SplineSet
384 0 m 1,0,-1
 384 768 l 1,1,-1
 128 768 l 1,2,-1
 128 896 l 1,3,-1
 896 896 l 1,4,-1
 896 768 l 1,5,-1
 640 768 l 1,6,-1
 640 0 l 1,7,-1
 384 0 l 1,0,-1
EndSplineSet
Validated: 1
EndChar

StartChar: U
Encoding: 85 85 56
Width: 1024
GlyphClass: 2
Flags: W
LayerCount: 2
Fore
SplineSet
128 0 m 1,0,-1
 128 128 l 1,1,-1
 0 128 l 1,2,-1
 0 896 l 1,3,-1
 256 896 l 1,4,-1
 256 128 l 1,5,-1
 640 128 l 1,6,-1
 640 896 l 1,7,-1
 896 896 l 1,8,-1
 896 128 l 1,9,-1
 768 128 l 1,10,-1
 768 0 l 1,11,-1
 128 0 l 1,0,-1
EndSplineSet
Validated: 1
EndChar

StartChar: V
Encoding: 86 86 57
Width: 1024
GlyphClass: 2
Flags: W
LayerCount: 2
Fore
SplineSet
384 0 m 1,0,-1
 384 128 l 1,1,-1
 256 128 l 1,2,-1
 256 384 l 1,3,-1
 128 384 l 1,4,-1
 128 640 l 1,5,-1
 0 640 l 1,6,-1
 0 896 l 1,7,-1
 256 896 l 1,8,-1
 256 640 l 1,9,-1
 384 640 l 1,10,-1
 384 384 l 1,11,-1
 512 384 l 1,12,-1
 512 640 l 1,13,-1
 640 640 l 1,14,-1
 640 896 l 1,15,-1
 896 896 l 1,16,-1
 896 640 l 1,17,-1
 768 640 l 1,18,-1
 768 384 l 1,19,-1
 640 384 l 1,20,-1
 640 128 l 1,21,-1
 512 128 l 1,22,-1
 512 0 l 1,23,-1
 384 0 l 1,0,-1
EndSplineSet
Validated: 1
EndChar

StartChar: W
Encoding: 87 87 58
Width: 1024
GlyphClass: 2
Flags: W
LayerCount: 2
Fore
SplineSet
0 0 m 1,0,-1
 0 896 l 1,1,-1
 256 896 l 1,2,-1
 256 384 l 1,3,-1
 384 384 l 1,4,-1
 384 512 l 1,5,-1
 512 512 l 1,6,-1
 512 384 l 1,7,-1
 640 384 l 1,8,-1
 640 896 l 1,9,-1
 896 896 l 1,10,-1
 896 0 l 1,11,-1
 768 0 l 1,12,13
 768 0 768 0 768 128 c 1,14,-1
 640 128 l 1,15,16
 640 128 640 128 640 256 c 1,17,-1
 512 256 l 1,18,-1
 512 384 l 1,19,-1
 384 384 l 1,20,-1
 384 256 l 1,21,-1
 256 256 l 1,22,-1
 256 128 l 1,23,24
 256 128 256 128 128 128 c 1,25,-1
 128 0 l 1,26,27
 128 0 128 0 0 0 c 1,0,-1
EndSplineSet
Validated: 5
EndChar

StartChar: X
Encoding: 88 88 59
Width: 1024
GlyphClass: 2
Flags: W
LayerCount: 2
Fore
SplineSet
0 0 m 1,0,-1
 0 128 l 1,1,-1
 128 128 l 1,2,-1
 128 256 l 1,3,-1
 256 256 l 1,4,-1
 256 384 l 1,5,6
 256 384 256 384 384 384 c 1,7,8
 384 384 384 384 384 512 c 1,9,-1
 256 512 l 1,10,11
 256 512 256 512 256 640 c 1,12,13
 256 640 256 640 128 640 c 1,14,-1
 128 768 l 1,15,-1
 0 768 l 1,16,-1
 0 896 l 1,17,-1
 256 896 l 1,18,-1
 256 768 l 1,19,20
 256 768 256 768 384 768 c 1,21,-1
 384 640 l 1,22,23
 384 640 384 640 640 640 c 1,24,-1
 640 768 l 1,25,26
 640 768 640 768 768 768 c 1,27,-1
 768 896 l 1,28,29
 768 896 768 896 896 896 c 1,30,-1
 896 768 l 1,31,-1
 768 768 l 1,32,-1
 768 640 l 1,33,-1
 640 640 l 1,34,-1
 640 384 l 1,35,-1
 768 384 l 1,36,-1
 768 256 l 1,37,-1
 896 256 l 1,38,-1
 896 0 l 1,39,-1
 768 0 l 1,40,41
 768 0 768 0 768 128 c 1,42,-1
 640 128 l 1,43,44
 640 128 640 128 640 256 c 1,45,-1
 512 256 l 1,46,47
 512 256 512 256 512 384 c 1,48,49
 512 384 512 384 384 384 c 1,50,51
 384 384 384 384 384 256 c 1,52,53
 384 256 384 256 256 256 c 1,54,-1
 256 128 l 1,55,56
 256 128 256 128 128 128 c 1,57,-1
 128 0 l 1,58,59
 128 0 128 0 0 0 c 1,0,-1
EndSplineSet
Validated: 5
EndChar

StartChar: Y
Encoding: 89 89 60
Width: 1024
GlyphClass: 2
Flags: W
LayerCount: 2
Fore
SplineSet
384 0 m 1,0,-1
 384 512 l 1,1,-1
 256 512 l 1,2,-1
 256 640 l 1,3,4
 256 640 256 640 128 640 c 1,5,6
 128 640 128 640 128 768 c 1,7,-1
 0 768 l 1,8,-1
 0 896 l 1,9,-1
 256 896 l 1,10,-1
 256 768 l 1,11,12
 256 768 256 768 384 768 c 1,13,14
 384 768 384 768 384 640 c 1,15,-1
 640 640 l 1,16,-1
 640 768 l 1,17,18
 640 768 640 768 768 768 c 1,19,-1
 768 896 l 1,20,21
 768 896 768 896 896 896 c 1,22,-1
 896 768 l 1,23,-1
 768 768 l 1,24,-1
 768 640 l 1,25,-1
 640 640 l 1,26,-1
 640 0 l 1,27,-1
 384 0 l 1,0,-1
EndSplineSet
Validated: 5
EndChar

StartChar: Z
Encoding: 90 90 61
Width: 1024
GlyphClass: 2
Flags: W
LayerCount: 2
Fore
SplineSet
0 0 m 1,0,-1
 0 256 l 1,1,-1
 128 256 l 1,2,-1
 128 384 l 1,3,-1
 256 384 l 1,4,-1
 256 512 l 1,5,-1
 384 512 l 1,6,-1
 384 640 l 1,7,-1
 512 640 l 1,8,-1
 512 768 l 1,9,-1
 128 768 l 1,10,-1
 128 768 l 1,11,-1
 0 768 l 1,12,-1
 0 896 l 1,13,-1
 896 896 l 1,14,-1
 896 768 l 1,15,16
 896 768 896 768 768 768 c 1,17,18
 768 768 768 768 768 640 c 1,19,-1
 640 640 l 1,20,-1
 640 512 l 1,21,-1
 512 512 l 1,22,-1
 512 384 l 1,23,-1
 384 384 l 1,24,-1
 384 256 l 1,25,-1
 256 256 l 1,26,-1
 256 128 l 1,27,-1
 640 128 l 1,28,-1
 640 128 l 1,29,-1
 896 128 l 5,30,-1
 896 0 l 5,31,-1
 0 0 l 1,0,-1
EndSplineSet
Validated: 1
EndChar

StartChar: bracketleft
Encoding: 91 91 62
Width: 1024
GlyphClass: 2
Flags: W
LayerCount: 2
Fore
SplineSet
0 0 m 1,0,-1
 0 1024 l 1,1,-1
 512 1024 l 1,2,-1
 512 896 l 1,3,-1
 128 896 l 1,4,-1
 128 128 l 1,5,-1
 512 128 l 1,6,-1
 512 0 l 1,7,-1
 0 0 l 1,0,-1
EndSplineSet
Validated: 1
EndChar

StartChar: backslash
Encoding: 92 92 63
Width: 1024
GlyphClass: 2
Flags: W
LayerCount: 2
Fore
SplineSet
768 0 m 1,0,-1
 768 128 l 1,1,-1
 896 128 l 1,2,-1
 896 0 l 1,3,-1
 768 0 l 1,0,-1
640 128 m 1,4,-1
 640 256 l 1,5,-1
 768 256 l 1,6,-1
 768 128 l 1,7,-1
 640 128 l 1,4,-1
512 256 m 1,8,-1
 512 384 l 1,9,-1
 640 384 l 1,10,-1
 640 256 l 1,11,-1
 512 256 l 1,8,-1
384 384 m 1,12,-1
 384 512 l 1,13,-1
 512 512 l 1,14,-1
 512 384 l 1,15,-1
 384 384 l 1,12,-1
256 512 m 1,16,-1
 256 640 l 1,17,-1
 384 640 l 1,18,-1
 384 512 l 1,19,-1
 256 512 l 1,16,-1
128 640 m 1,20,-1
 128 768 l 1,21,-1
 256 768 l 1,22,-1
 256 640 l 1,23,-1
 128 640 l 1,20,-1
EndSplineSet
Validated: 5
EndChar

StartChar: bracketright
Encoding: 93 93 64
Width: 1024
GlyphClass: 2
Flags: W
LayerCount: 2
Fore
SplineSet
384 0 m 1,0,-1
 384 128 l 1,1,-1
 768 128 l 1,2,-1
 768 896 l 1,3,-1
 384 896 l 1,4,-1
 384 1024 l 1,5,-1
 896 1024 l 1,6,-1
 896 0 l 1,7,-1
 384 0 l 1,0,-1
EndSplineSet
Validated: 1
EndChar

StartChar: asciicircum
Encoding: 94 94 65
Width: 1024
GlyphClass: 2
Flags: W
LayerCount: 2
Fore
SplineSet
128 640 m 1,0,-1
 128 768 l 1,1,-1
 256 768 l 1,2,-1
 256 640 l 1,3,-1
 128 640 l 1,0,-1
640 640 m 1,4,-1
 640 768 l 1,5,-1
 768 768 l 1,6,-1
 768 640 l 1,7,-1
 640 640 l 1,4,-1
256 768 m 1,8,-1
 256 896 l 1,9,-1
 384 896 l 1,10,-1
 384 768 l 1,11,-1
 256 768 l 1,8,-1
512 768 m 1,12,-1
 512 896 l 1,13,-1
 640 896 l 1,14,-1
 640 768 l 1,15,-1
 512 768 l 1,12,-1
384 896 m 1,16,-1
 384 1024 l 1,17,-1
 512 1024 l 1,18,-1
 512 896 l 1,19,-1
 384 896 l 1,16,-1
EndSplineSet
Validated: 5
EndChar

StartChar: underscore
Encoding: 95 95 66
Width: 1024
GlyphClass: 2
Flags: W
LayerCount: 2
Fore
SplineSet
0 0 m 1,0,-1
 0 128 l 1,1,-1
 896 128 l 1,2,-1
 896 0 l 1,3,-1
 0 0 l 1,0,-1
EndSplineSet
Validated: 1
EndChar

StartChar: grave
Encoding: 96 96 67
Width: 1024
GlyphClass: 2
Flags: W
LayerCount: 2
Fore
SplineSet
384 640 m 1,0,-1
 384 768 l 1,1,-1
 512 768 l 1,2,-1
 512 640 l 1,3,-1
 384 640 l 1,0,-1
256 768 m 1,4,-1
 256 896 l 1,5,-1
 384 896 l 1,6,-1
 384 768 l 1,7,-1
 256 768 l 1,4,-1
128 896 m 1,8,-1
 128 1024 l 1,9,-1
 256 1024 l 1,10,-1
 256 896 l 1,11,-1
 128 896 l 1,8,-1
EndSplineSet
Validated: 5
EndChar

StartChar: a
Encoding: 97 97 68
Width: 1024
GlyphClass: 2
Flags: W
LayerCount: 2
Fore
SplineSet
256 512 m 1,0,-1
 512 512 l 1,1,-1
 512 384 l 1,2,-1
 256 384 l 1,3,-1
 256 256 l 0,4,5
 256 256 256 256 128 256 c 0,6,7
 128 256 128 256 128 128 c 1,8,-1
 256 128 l 0,9,10
 256 128 256 128 256 256 c 0,11,12
 256 256 256 256 512 256 c 1,13,-1
 512 128 l 0,14,15
 512 128 512 128 256 128 c 0,16,17
 256 128 256 128 256 0 c 1,18,-1
 640 0 l 0,19,20
 640 0 640 0 640 128 c 1,21,-1
 768 128 l 0,22,23
 768 128 768 128 768 0 c 0,24,25
 768 0 768 0 896 0 c 0,26,27
 896 0 896 0 896 128 c 0,28,29
 896 128 896 128 768 128 c 0,30,31
 768 128 768 128 768 512 c 1,32,33
 768 512 768 512 640 512 c 1,34,-1
 640 640 l 1,35,36
 640 640 640 640 256 640 c 1,37,-1
 256 512 l 1,0,-1
EndSplineSet
Validated: 5
EndChar

StartChar: b
Encoding: 98 98 69
Width: 1024
GlyphClass: 2
Flags: W
LayerCount: 2
Fore
SplineSet
768 128 m 5,0,-1
 768 512 l 5,1,-1
 511 512 l 5,2,-1
 511 128 l 5,3,-1
 768 128 l 5,0,-1
255 0 m 5,4,-1
 255 896 l 5,5,-1
 511 896 l 5,6,-1
 511 640 l 5,7,-1
 768 640 l 1,8,-1
 768 512 l 1,9,-1
 896 512 l 1,10,-1
 896 128 l 1,11,-1
 768 128 l 1,12,-1
 768 0 l 1,13,-1
 255 0 l 5,4,-1
EndSplineSet
Validated: 5
EndChar

StartChar: c
Encoding: 99 99 70
Width: 1024
GlyphClass: 2
Flags: W
LayerCount: 2
Fore
SplineSet
896 128 m 5,0,-1
 896 0 l 5,1,-1
 384 0 l 5,2,-1
 384 128 l 5,3,-1
 256 128 l 5,4,-1
 256 512 l 5,5,-1
 384 512 l 5,6,-1
 384 640 l 5,7,-1
 896 640 l 5,8,-1
 896 512 l 5,9,-1
 512 512 l 5,10,-1
 512 128 l 5,11,-1
 896 128 l 5,0,-1
EndSplineSet
Validated: 1
EndChar

StartChar: d
Encoding: 100 100 71
Width: 1024
GlyphClass: 2
Flags: W
LayerCount: 2
Fore
SplineSet
512 128 m 1,0,-1
 512 512 l 1,1,-1
 256 512 l 1,2,-1
 256 128 l 1,3,-1
 512 128 l 1,0,-1
256 0 m 1,4,-1
 256 128 l 1,5,-1
 128 128 l 1,6,-1
 128 512 l 1,7,-1
 256 512 l 1,8,-1
 256 640 l 1,9,-1
 512 640 l 1,10,-1
 512 896 l 1,11,-1
 768 896 l 1,12,-1
 768 0 l 1,13,-1
 256 0 l 1,4,-1
EndSplineSet
Validated: 5
EndChar

StartChar: e
Encoding: 101 101 72
Width: 1024
GlyphClass: 2
Flags: W
LayerCount: 2
Fore
SplineSet
768 384 m 1,0,-1
 768 512 l 1,1,-1
 384 512 l 1,2,-1
 384 384 l 1,3,-1
 768 384 l 1,0,-1
256 0 m 1,4,-1
 256 128 l 1,5,-1
 128 128 l 1,6,-1
 128 512 l 1,7,-1
 256 512 l 1,8,-1
 256 640 l 1,9,-1
 768 640 l 1,10,-1
 768 512 l 1,11,-1
 896 512 l 1,12,-1
 896 256 l 1,13,-1
 384 256 l 1,14,-1
 384 128 l 1,15,-1
 768 128 l 1,16,-1
 768 0 l 1,17,-1
 256 0 l 1,4,-1
EndSplineSet
Validated: 5
EndChar

StartChar: f
Encoding: 102 102 73
Width: 1024
GlyphClass: 2
Flags: W
LayerCount: 2
Fore
SplineSet
384 0 m 1,0,-1
 384 384 l 1,1,-1
 128 384 l 1,2,-1
 128 512 l 1,3,-1
 384 512 l 1,4,-1
 384 768 l 1,5,-1
 512 768 l 1,6,-1
 512 896 l 1,7,-1
 768 896 l 1,8,9
 768 896 768 896 768 768 c 1,10,11
 768 768 768 768 896 768 c 1,12,-1
 896 640 l 1,13,-1
 768 640 l 1,14,15
 768 640 768 640 768 768 c 1,16,17
 768 768 768 768 640 768 c 1,18,-1
 640 512 l 1,19,-1
 768 512 l 1,20,-1
 768 384 l 1,21,-1
 640 384 l 1,22,-1
 640 0 l 1,23,-1
 384 0 l 1,0,-1
EndSplineSet
Validated: 5
EndChar

StartChar: g
Encoding: 103 103 74
Width: 1024
GlyphClass: 2
Flags: W
LayerCount: 2
Fore
SplineSet
512 256 m 1,0,-1
 512 512 l 1,1,-1
 256 512 l 1,2,-1
 256 256 l 1,3,-1
 512 256 l 1,0,-1
256 -128 m 1,4,-1
 256 0 l 1,5,-1
 512 0 l 1,6,-1
 512 128 l 1,7,-1
 256 128 l 1,8,-1
 256 256 l 1,9,-1
 128 256 l 1,10,-1
 128 512 l 1,11,-1
 256 512 l 1,12,-1
 256 640 l 1,13,-1
 768 640 l 1,14,-1
 768 512 l 1,15,-1
 768 512 l 1,16,-1
 768 0 l 1,17,-1
 640 0 l 1,18,-1
 640 -128 l 1,19,-1
 256 -128 l 1,4,-1
EndSplineSet
Validated: 5
EndChar

StartChar: h
Encoding: 104 104 75
Width: 1024
GlyphClass: 2
Flags: W
LayerCount: 2
Fore
SplineSet
256 0 m 1,0,-1
 256 896 l 1,1,-1
 512 896 l 1,2,-1
 512 640 l 1,3,-1
 768 640 l 1,4,-1
 768 512 l 1,5,-1
 896 512 l 1,6,-1
 896 0 l 1,7,-1
 768 0 l 1,8,-1
 768 512 l 1,9,-1
 512 512 l 1,10,-1
 512 0 l 1,11,-1
 256 0 l 1,0,-1
EndSplineSet
Validated: 5
EndChar

StartChar: i
Encoding: 105 105 76
Width: 1024
GlyphClass: 2
Flags: W
LayerCount: 2
Fore
SplineSet
384 0 m 1,0,-1
 384 640 l 1,1,-1
 640 640 l 1,2,-1
 640 0 l 1,3,-1
 384 0 l 1,0,-1
384 768 m 1,4,-1
 384 896 l 1,5,-1
 640 896 l 1,6,-1
 640 768 l 1,7,-1
 384 768 l 1,4,-1
EndSplineSet
Validated: 1
EndChar

StartChar: j
Encoding: 106 106 77
Width: 1024
GlyphClass: 2
Flags: W
LayerCount: 2
Fore
SplineSet
256 -128 m 1,0,-1
 256 0 l 1,1,-1
 128 0 l 1,2,-1
 128 256 l 1,3,-1
 256 256 l 1,4,-1
 256 0 l 1,5,-1
 512 0 l 1,6,-1
 512 640 l 1,7,-1
 768 640 l 1,8,-1
 768 0 l 1,9,-1
 640 0 l 1,10,-1
 640 -128 l 1,11,-1
 256 -128 l 1,0,-1
512 768 m 1,12,-1
 512 896 l 1,13,-1
 768 896 l 1,14,-1
 768 768 l 1,15,-1
 512 768 l 1,12,-1
EndSplineSet
Validated: 5
EndChar

StartChar: k
Encoding: 107 107 78
Width: 1024
GlyphClass: 2
Flags: W
LayerCount: 2
Fore
SplineSet
256 0 m 5,0,-1
 256 896 l 5,1,-1
 512 896 l 5,2,-1
 512 384 l 5,3,-1
 640 384 l 5,4,-1
 640 512 l 5,5,-1
 768 512 l 5,6,-1
 768 640 l 5,7,-1
 896 640 l 5,8,-1
 896 512 l 5,9,-1
 768 512 l 5,10,-1
 768 384 l 5,11,-1
 640 384 l 5,12,-1
 640 256 l 5,13,-1
 768 256 l 5,14,-1
 768 128 l 5,15,-1
 896 128 l 5,16,-1
 896 0 l 5,17,-1
 768 0 l 5,18,-1
 768 128 l 5,19,-1
 640 128 l 5,20,-1
 640 256 l 5,21,-1
 512 256 l 5,22,-1
 512 0 l 5,23,-1
 256 0 l 5,0,-1
EndSplineSet
Validated: 5
EndChar

StartChar: l
Encoding: 108 108 79
Width: 1024
GlyphClass: 2
Flags: W
LayerCount: 2
Fore
SplineSet
256 0 m 1,0,-1
 256 128 l 1,1,2
 256 128 256 128 384 128 c 1,3,4
 384 128 384 128 384 768 c 1,5,6
 384 768 384 768 256 768 c 1,7,8
 256 768 256 768 256 896 c 1,9,-1
 640 896 l 1,10,-1
 640 128 l 1,11,12
 640 128 640 128 768 128 c 1,13,14
 768 128 768 128 768 0 c 1,15,-1
 256 0 l 1,0,-1
EndSplineSet
Validated: 1
EndChar

StartChar: m
Encoding: 109 109 80
Width: 1024
GlyphClass: 2
Flags: W
LayerCount: 2
Fore
SplineSet
128 0 m 1,0,-1
 128 640 l 1,1,-1
 512 640 l 1,2,3
 512 640 512 640 512 512 c 1,4,5
 512 512 512 512 640 512 c 1,6,7
 640 512 640 512 640 640 c 1,8,9
 640 640 640 640 896 640 c 1,10,-1
 896 512 l 1,11,-1
 1024 512 l 1,12,-1
 1024 0 l 1,13,-1
 896 0 l 1,14,-1
 896 512 l 1,15,-1
 640 512 l 1,16,-1
 640 0 l 1,17,-1
 512 0 l 1,18,-1
 512 512 l 1,19,-1
 384 512 l 1,20,-1
 384 0 l 1,21,-1
 128 0 l 1,0,-1
EndSplineSet
Validated: 5
EndChar

StartChar: n
Encoding: 110 110 81
Width: 1024
GlyphClass: 2
Flags: W
LayerCount: 2
Fore
SplineSet
128 0 m 1,0,-1
 128 640 l 1,1,-1
 384 640 l 1,2,3
 384 640 384 640 384 512 c 1,4,5
 384 512 384 512 512 512 c 1,6,7
 512 512 512 512 512 640 c 1,8,9
 512 640 512 640 768 640 c 1,10,-1
 768 512 l 1,11,-1
 896 512 l 1,12,-1
 896 0 l 1,13,-1
 768 0 l 5,14,-1
 768 512 l 5,15,-1
 512 512 l 1,16,17
 512 512 512 512 512 386 c 1,18,19
 512 386 512 386 384 384 c 1,20,-1
 384 0 l 1,21,-1
 128 0 l 1,0,-1
EndSplineSet
Validated: 5
EndChar

StartChar: o
Encoding: 111 111 82
Width: 1024
GlyphClass: 2
Flags: W
LayerCount: 2
Fore
SplineSet
640 128 m 1,0,-1
 640 512 l 1,1,-1
 256 512 l 1,2,-1
 256 128 l 1,3,-1
 640 128 l 1,0,-1
256 0 m 5,4,-1
 256 128 l 5,5,-1
 128 128 l 5,6,-1
 128 512 l 5,7,-1
 256 512 l 5,8,-1
 256 640 l 5,9,-1
 768 640 l 1,10,-1
 768 512 l 1,11,-1
 896 512 l 1,12,-1
 896 128 l 1,13,-1
 768 128 l 1,14,-1
 768 0 l 1,15,-1
 256 0 l 5,4,-1
EndSplineSet
Validated: 5
EndChar

StartChar: p
Encoding: 112 112 83
Width: 1024
GlyphClass: 2
Flags: W
LayerCount: 2
Fore
SplineSet
768 256 m 5,0,-1
 768 512 l 5,1,-1
 512 512 l 5,2,-1
 512 256 l 5,3,-1
 768 256 l 5,0,-1
256 -128 m 5,4,-1
 256 640 l 5,5,-1
 768 640 l 5,6,-1
 768 512 l 5,7,-1
 896 512 l 5,8,-1
 896 256 l 5,9,-1
 768 256 l 5,10,-1
 768 128 l 5,11,-1
 512 128 l 5,12,-1
 512 -128 l 5,13,-1
 256 -128 l 5,4,-1
EndSplineSet
Validated: 5
EndChar

StartChar: q
Encoding: 113 113 84
Width: 1024
GlyphClass: 2
Flags: W
LayerCount: 2
Fore
SplineSet
512 256 m 1,0,-1
 512 512 l 1,1,-1
 256 512 l 1,2,-1
 256 256 l 1,3,-1
 512 256 l 1,0,-1
512 -128 m 1,4,-1
 512 128 l 1,5,-1
 256 128 l 1,6,-1
 256 256 l 1,7,-1
 128 256 l 1,8,-1
 128 512 l 1,9,-1
 256 512 l 1,10,-1
 256 640 l 1,11,-1
 768 640 l 1,12,-1
 768 -128 l 1,13,-1
 512 -128 l 1,4,-1
EndSplineSet
Validated: 5
EndChar

StartChar: r
Encoding: 114 114 85
Width: 1024
GlyphClass: 2
Flags: W
LayerCount: 2
Fore
SplineSet
256 0 m 1,0,-1
 256 640 l 1,1,-1
 512 640 l 1,2,-1
 512 512 l 1,3,-1
 640 512 l 1,4,-1
 640 640 l 1,5,-1
 896 640 l 1,6,-1
 896 512 l 1,7,-1
 640 512 l 1,8,-1
 640 384 l 1,9,-1
 512 384 l 1,10,-1
 512 0 l 1,11,-1
 256 0 l 1,0,-1
EndSplineSet
Validated: 5
EndChar

StartChar: s
Encoding: 115 115 86
Width: 1024
GlyphClass: 2
Flags: W
LayerCount: 2
Fore
SplineSet
256 0 m 1,0,-1
 256 128 l 1,1,-1
 640 128 l 1,2,-1
 640 256 l 1,3,-1
 384 256 l 1,4,-1
 384 384 l 1,5,-1
 256 384 l 1,6,-1
 256 512 l 1,7,-1
 384 512 l 1,8,-1
 384 640 l 1,9,-1
 896 640 l 1,10,-1
 896 512 l 1,11,-1
 512 512 l 1,12,-1
 512 384 l 1,13,-1
 768 384 l 1,14,-1
 768 256 l 1,15,-1
 896 256 l 1,16,-1
 896 128 l 1,17,-1
 768 128 l 1,18,-1
 768 0 l 1,19,-1
 256 0 l 1,0,-1
EndSplineSet
Validated: 1
EndChar

StartChar: t
Encoding: 116 116 87
Width: 1024
GlyphClass: 2
Flags: W
LayerCount: 2
Fore
SplineSet
896 256 m 21,0,-1
 896 128 l 9,1,-1
 768 128 l 25,2,-1
 768 256 l 25,3,-1
 896 256 l 21,0,-1
384 0 m 1,4,-1
 384 128 l 1,5,-1
 256 128 l 1,6,-1
 256 512 l 1,7,-1
 128 512 l 1,8,-1
 128 640 l 1,9,-1
 256 640 l 1,10,-1
 256 896 l 1,11,-1
 512 896 l 1,12,-1
 512 640 l 1,13,-1
 768 640 l 1,14,-1
 768 512 l 1,15,-1
 512 512 l 1,16,-1
 512 128 l 1,17,-1
 768 128 l 1,18,-1
 768 0 l 1,19,-1
 384 0 l 1,4,-1
EndSplineSet
Validated: 5
EndChar

StartChar: u
Encoding: 117 117 88
Width: 1024
GlyphClass: 2
Flags: W
LayerCount: 2
Fore
SplineSet
256 0 m 1,0,-1
 256 128 l 1,1,-1
 128 128 l 1,2,-1
 128 640 l 1,3,-1
 256 640 l 1,4,-1
 256 128 l 1,5,-1
 512 128 l 1,6,-1
 512 0 l 1,7,-1
 256 0 l 1,0,-1
640 0 m 1,8,-1
 640 128 l 1,9,-1
 512 128 l 1,10,-1
 512 256 l 1,11,-1
 640 256 l 1,12,-1
 640 640 l 1,13,-1
 896 640 l 1,14,-1
 896 0 l 1,15,-1
 640 0 l 1,8,-1
EndSplineSet
Validated: 5
EndChar

StartChar: v
Encoding: 118 118 89
Width: 1024
GlyphClass: 2
Flags: W
LayerCount: 2
Fore
SplineSet
384 0 m 1,0,-1
 384 128 l 1,1,-1
 384 128 l 1,2,-1
 256 128 l 1,3,-1
 256 256 l 1,4,-1
 128 256 l 1,5,-1
 128 384 l 1,6,-1
 128 640 l 1,7,-1
 384 640 l 1,8,-1
 384 256 l 1,9,-1
 512 256 l 1,10,-1
 512 128 l 1,11,-1
 640 128 l 1,12,-1
 640 256 l 1,13,-1
 768 256 l 1,14,-1
 768 640 l 1,15,-1
 896 640 l 1,16,-1
 896 384 l 1,17,-1
 896 384 l 1,18,-1
 896 256 l 1,19,-1
 768 256 l 1,20,-1
 768 128 l 1,21,-1
 640 128 l 1,22,-1
 640 0 l 1,23,-1
 384 0 l 1,0,-1
EndSplineSet
Validated: 5
EndChar

StartChar: w
Encoding: 119 119 90
Width: 1024
GlyphClass: 2
Flags: W
LayerCount: 2
Fore
SplineSet
128 128 m 1,0,-1
 128 640 l 1,1,-1
 384 640 l 1,2,-1
 384 128 l 1,3,-1
 512 128 l 1,4,-1
 512 512 l 1,5,-1
 640 512 l 1,6,-1
 640 128 l 1,7,-1
 896 128 l 1,8,-1
 896 640 l 1,9,-1
 1024 640 l 1,10,-1
 1024 128 l 1,11,-1
 896 128 l 1,12,-1
 896 0 l 1,13,-1
 640 0 l 1,14,-1
 640 128 l 1,15,-1
 512 128 l 1,16,-1
 512 0 l 1,17,-1
 256 0 l 1,18,-1
 256 128 l 1,19,-1
 128 128 l 1,0,-1
EndSplineSet
Validated: 5
EndChar

StartChar: x
Encoding: 120 120 91
Width: 1024
GlyphClass: 2
Flags: W
LayerCount: 2
Fore
SplineSet
256 0 m 1,0,-1
 256 128 l 1,1,-1
 384 128 l 1,2,-1
 384 256 l 1,3,-1
 512 256 l 1,4,-1
 512 384 l 1,5,-1
 384 384 l 1,6,-1
 384 512 l 1,7,-1
 256 512 l 1,8,-1
 256 640 l 1,9,-1
 512 640 l 1,10,-1
 512 512 l 1,11,-1
 768 512 l 1,12,-1
 768 640 l 1,13,-1
 896 640 l 1,14,-1
 896 512 l 1,15,-1
 768 512 l 1,16,-1
 768 384 l 1,17,-1
 640 384 l 1,18,-1
 640 256 l 1,19,-1
 768 256 l 1,20,-1
 768 128 l 1,21,-1
 896 128 l 1,22,-1
 896 0 l 1,23,-1
 640 0 l 1,24,-1
 640 128 l 1,25,-1
 384 128 l 1,26,-1
 384 0 l 1,27,-1
 256 0 l 1,0,-1
EndSplineSet
Validated: 5
EndChar

StartChar: y
Encoding: 121 121 92
Width: 1024
GlyphClass: 2
Flags: W
LayerCount: 2
Fore
SplineSet
256 -128 m 1,0,-1
 256 0 l 1,1,-1
 512 0 l 5,2,-1
 512 128 l 5,3,-1
 256 128 l 1,4,-1
 256 256 l 1,5,-1
 128 256 l 1,6,-1
 128 640 l 1,7,-1
 256 640 l 1,8,-1
 256 256 l 1,9,-1
 512 256 l 5,10,-1
 512 640 l 5,11,-1
 768 640 l 5,12,-1
 768 0 l 5,13,-1
 640 0 l 5,14,-1
 640 -128 l 5,15,-1
 256 -128 l 1,0,-1
EndSplineSet
Validated: 5
EndChar

StartChar: z
Encoding: 122 122 93
Width: 1024
GlyphClass: 2
Flags: W
LayerCount: 2
Fore
SplineSet
256 0 m 1,0,-1
 256 256 l 1,1,-1
 384 256 l 1,2,-1
 384 384 l 1,3,-1
 512 384 l 1,4,-1
 512 512 l 1,5,-1
 256 512 l 1,6,-1
 256 640 l 1,7,-1
 896 640 l 1,8,-1
 896 512 l 1,9,-1
 768 512 l 1,10,-1
 768 384 l 1,11,-1
 640 384 l 1,12,-1
 640 256 l 1,13,-1
 512 256 l 1,14,-1
 512 128 l 1,15,-1
 896 128 l 1,16,-1
 896 0 l 1,17,-1
 256 0 l 1,0,-1
EndSplineSet
Validated: 1
EndChar

StartChar: braceleft
Encoding: 123 123 94
Width: 1024
GlyphClass: 2
Flags: W
LayerCount: 2
Fore
SplineSet
128 0 m 1,0,-1
 128 384 l 1,1,-1
 256 384 l 1,2,-1
 256 128 l 1,3,-1
 512 128 l 1,4,-1
 512 0 l 1,5,-1
 128 0 l 1,0,-1
0 384 m 1,6,-1
 0 640 l 1,7,-1
 128 640 l 1,8,-1
 128 384 l 1,9,-1
 0 384 l 1,6,-1
128 640 m 1,10,-1
 128 1024 l 1,11,-1
 512 1024 l 1,12,-1
 512 896 l 1,13,-1
 256 896 l 1,14,-1
 256 640 l 1,15,-1
 128 640 l 1,10,-1
EndSplineSet
Validated: 5
EndChar

StartChar: bar
Encoding: 124 124 95
Width: 1024
GlyphClass: 2
Flags: W
LayerCount: 2
Fore
SplineSet
384 0 m 1,0,-1
 384 1024 l 1,1,-1
 512 1024 l 1,2,-1
 512 0 l 1,3,-1
 384 0 l 1,0,-1
EndSplineSet
Validated: 1
EndChar

StartChar: braceright
Encoding: 125 125 96
Width: 1024
GlyphClass: 2
Flags: W
LayerCount: 2
Fore
SplineSet
384 0 m 1,0,-1
 384 128 l 1,1,-1
 640 128 l 1,2,-1
 640 384 l 1,3,-1
 768 384 l 1,4,-1
 768 0 l 1,5,-1
 384 0 l 1,0,-1
768 384 m 1,6,-1
 768 640 l 1,7,-1
 896 640 l 1,8,-1
 896 384 l 1,9,-1
 768 384 l 1,6,-1
640 640 m 1,10,-1
 640 896 l 1,11,-1
 384 896 l 1,12,-1
 384 1024 l 1,13,-1
 768 1024 l 1,14,-1
 768 640 l 1,15,-1
 640 640 l 1,10,-1
EndSplineSet
Validated: 5
EndChar

StartChar: asciitilde
Encoding: 126 126 97
Width: 1024
GlyphClass: 2
Flags: W
LayerCount: 2
Fore
SplineSet
128 640 m 1,0,-1
 128 768 l 1,1,-1
 256 768 l 1,2,-1
 256 640 l 1,3,-1
 128 640 l 1,0,-1
384 640 m 1,4,-1
 384 768 l 1,5,-1
 512 768 l 1,6,-1
 512 640 l 1,7,-1
 384 640 l 1,4,-1
256 768 m 1,8,-1
 256 896 l 1,9,-1
 384 896 l 1,10,-1
 384 768 l 1,11,-1
 256 768 l 1,8,-1
512 768 m 1,12,-1
 512 896 l 1,13,-1
 640 896 l 1,14,-1
 640 768 l 1,15,-1
 512 768 l 1,12,-1
EndSplineSet
Validated: 5
EndChar

StartChar: uni007F
Encoding: 127 127 98
Width: 1024
GlyphClass: 2
Flags: W
LayerCount: 2
Fore
SplineSet
0 0 m 1,0,-1
 0 1024 l 1,1,-1
 896 1024 l 1,2,-1
 896 0 l 1,3,-1
 0 0 l 1,0,-1
EndSplineSet
Validated: 1
EndChar

StartChar: arrowleft
Encoding: 8592 8592 99
Width: 1024
GlyphClass: 2
Flags: W
LayerCount: 2
Fore
SplineSet
384 0 m 1,0,-1
 384 128 l 1,1,-1
 256 128 l 1,2,-1
 256 256 l 1,3,-1
 128 256 l 1,4,-1
 128 384 l 1,5,-1
 0 384 l 1,6,-1
 0 512 l 1,7,-1
 128 512 l 1,8,-1
 128 640 l 1,9,-1
 256 640 l 1,10,-1
 256 768 l 1,11,-1
 384 768 l 1,12,-1
 384 896 l 1,13,-1
 512 896 l 1,14,-1
 512 640 l 1,15,-1
 1024 640 l 1,16,-1
 1024 256 l 1,17,-1
 512 256 l 1,18,-1
 512 0 l 1,19,-1
 384 0 l 1,0,-1
EndSplineSet
Validated: 1
EndChar

StartChar: arrowup
Encoding: 8593 8593 100
Width: 1024
GlyphClass: 2
Flags: W
LayerCount: 2
Fore
SplineSet
256 0 m 1,0,-1
 256 512 l 1,1,-1
 0 512 l 1,2,-1
 0 640 l 1,3,-1
 128 640 l 1,4,-1
 128 768 l 1,5,-1
 256 768 l 1,6,-1
 256 896 l 1,7,-1
 384 896 l 1,8,-1
 384 1024 l 1,9,-1
 512 1024 l 1,10,-1
 512 896 l 1,11,-1
 640 896 l 1,12,-1
 640 768 l 1,13,-1
 768 768 l 1,14,-1
 768 640 l 1,15,-1
 896 640 l 1,16,-1
 896 512 l 1,17,-1
 640 512 l 1,18,-1
 640 0 l 1,19,-1
 256 0 l 1,0,-1
EndSplineSet
Validated: 1
EndChar

StartChar: arrowright
Encoding: 8594 8594 101
Width: 1024
GlyphClass: 2
Flags: W
LayerCount: 2
Fore
SplineSet
512 0 m 1,0,-1
 512 256 l 1,1,-1
 0 256 l 1,2,-1
 0 640 l 1,3,-1
 512 640 l 1,4,-1
 512 896 l 1,5,-1
 640 896 l 1,6,-1
 640 768 l 1,7,-1
 768 768 l 1,8,-1
 768 640 l 1,9,-1
 896 640 l 1,10,-1
 896 512 l 1,11,-1
 1024 512 l 1,12,-1
 1024 384 l 1,13,-1
 896 384 l 1,14,-1
 896 256 l 1,15,-1
 768 256 l 1,16,-1
 768 128 l 1,17,-1
 640 128 l 1,18,-1
 640 0 l 1,19,-1
 512 0 l 1,0,-1
EndSplineSet
Validated: 1
EndChar

StartChar: arrowdown
Encoding: 8595 8595 102
Width: 1024
GlyphClass: 2
Flags: W
LayerCount: 2
Fore
SplineSet
384 0 m 1,0,-1
 384 128 l 1,1,-1
 256 128 l 1,2,-1
 256 256 l 1,3,-1
 128 256 l 1,4,-1
 128 384 l 1,5,-1
 0 384 l 1,6,-1
 0 512 l 1,7,-1
 256 512 l 1,8,-1
 256 1024 l 1,9,-1
 640 1024 l 1,10,-1
 640 512 l 1,11,-1
 896 512 l 1,12,-1
 896 384 l 1,13,-1
 768 384 l 1,14,-1
 768 256 l 1,15,-1
 640 256 l 1,16,-1
 640 128 l 1,17,-1
 512 128 l 1,18,-1
 512 0 l 1,19,-1
 384 0 l 1,0,-1
EndSplineSet
Validated: 1
EndChar

StartChar: uni21BC
Encoding: 8636 8636 103
Width: 1024
GlyphClass: 2
Flags: W
LayerCount: 2
Fore
SplineSet
0 384 m 1,0,-1
 0 512 l 1,1,-1
 128 512 l 1,2,-1
 128 640 l 1,3,-1
 256 640 l 1,4,-1
 256 768 l 1,5,-1
 384 768 l 1,6,-1
 384 896 l 1,7,-1
 512 896 l 1,8,-1
 512 640 l 1,9,-1
 1024 640 l 1,10,-1
 1024 384 l 1,11,-1
 0 384 l 1,0,-1
EndSplineSet
Validated: 1
EndChar

StartChar: uni21BD
Encoding: 8637 8637 104
Width: 1024
GlyphClass: 2
Flags: W
LayerCount: 2
Fore
SplineSet
384 0 m 1,0,-1
 384 128 l 1,1,-1
 256 128 l 1,2,-1
 256 256 l 1,3,-1
 128 256 l 1,4,-1
 128 384 l 1,5,-1
 0 384 l 1,6,-1
 0 512 l 1,7,-1
 1024 512 l 1,8,-1
 1024 256 l 1,9,-1
 512 256 l 1,10,-1
 512 0 l 1,11,-1
 384 0 l 1,0,-1
EndSplineSet
Validated: 1
EndChar

StartChar: uni21BE
Encoding: 8638 8638 105
Width: 1024
GlyphClass: 2
Flags: W
LayerCount: 2
Fore
SplineSet
384 0 m 1,0,-1
 384 1024 l 1,1,-1
 512 1024 l 1,2,-1
 512 896 l 1,3,-1
 640 896 l 1,4,-1
 640 768 l 1,5,-1
 768 768 l 1,6,-1
 768 640 l 1,7,-1
 896 640 l 1,8,-1
 896 512 l 1,9,-1
 640 512 l 1,10,-1
 640 0 l 1,11,-1
 384 0 l 1,0,-1
EndSplineSet
Validated: 1
EndChar

StartChar: uni21BF
Encoding: 8639 8639 106
Width: 1024
GlyphClass: 2
Flags: W
LayerCount: 2
Fore
SplineSet
256 0 m 1,0,-1
 256 512 l 1,1,-1
 0 512 l 1,2,-1
 0 640 l 1,3,-1
 128 640 l 1,4,-1
 128 768 l 1,5,-1
 256 768 l 1,6,-1
 256 896 l 1,7,-1
 384 896 l 1,8,-1
 384 1024 l 1,9,-1
 512 1024 l 1,10,-1
 512 0 l 1,11,-1
 256 0 l 1,0,-1
EndSplineSet
Validated: 1
EndChar

StartChar: uni21C0
Encoding: 8640 8640 107
Width: 1024
GlyphClass: 2
Flags: W
LayerCount: 2
Fore
SplineSet
0 384 m 1,0,-1
 0 640 l 1,1,-1
 512 640 l 1,2,-1
 512 896 l 1,3,-1
 640 896 l 1,4,-1
 640 768 l 1,5,-1
 768 768 l 1,6,-1
 768 640 l 1,7,-1
 896 640 l 1,8,-1
 896 512 l 1,9,-1
 1024 512 l 1,10,-1
 1024 384 l 1,11,-1
 0 384 l 1,0,-1
EndSplineSet
Validated: 1
EndChar

StartChar: uni21C1
Encoding: 8641 8641 108
Width: 1024
GlyphClass: 2
Flags: W
LayerCount: 2
Fore
SplineSet
512 0 m 1,0,-1
 512 256 l 1,1,-1
 0 256 l 1,2,-1
 0 512 l 1,3,-1
 1024 512 l 1,4,-1
 1024 384 l 1,5,-1
 896 384 l 1,6,-1
 896 256 l 1,7,-1
 768 256 l 1,8,-1
 768 128 l 1,9,-1
 640 128 l 1,10,-1
 640 0 l 1,11,-1
 512 0 l 1,0,-1
EndSplineSet
Validated: 1
EndChar

StartChar: uni21C2
Encoding: 8642 8642 109
Width: 1024
GlyphClass: 2
Flags: W
LayerCount: 2
Fore
SplineSet
384 0 m 1,0,-1
 384 1024 l 1,1,-1
 640 1024 l 1,2,-1
 640 512 l 1,3,-1
 896 512 l 1,4,-1
 896 384 l 1,5,-1
 768 384 l 1,6,-1
 768 256 l 1,7,-1
 640 256 l 1,8,-1
 640 128 l 1,9,-1
 512 128 l 1,10,-1
 512 0 l 1,11,-1
 384 0 l 1,0,-1
EndSplineSet
Validated: 1
EndChar

StartChar: uni21C3
Encoding: 8643 8643 110
Width: 1024
GlyphClass: 2
Flags: W
LayerCount: 2
Fore
SplineSet
384 0 m 1,0,-1
 384 128 l 1,1,-1
 256 128 l 1,2,-1
 256 256 l 1,3,-1
 128 256 l 1,4,-1
 128 384 l 1,5,-1
 0 384 l 1,6,-1
 0 512 l 1,7,-1
 256 512 l 1,8,-1
 256 1024 l 1,9,-1
 512 1024 l 1,10,-1
 512 0 l 1,11,-1
 384 0 l 1,0,-1
EndSplineSet
Validated: 1
EndChar

StartChar: arrowdblleft
Encoding: 8656 8656 111
Width: 1024
GlyphClass: 2
Flags: W
LayerCount: 2
Fore
SplineSet
384 0 m 1,0,-1
 384 128 l 1,1,-1
 256 128 l 1,2,-1
 256 256 l 1,3,-1
 128 256 l 1,4,-1
 128 384 l 1,5,-1
 0 384 l 1,6,-1
 0 512 l 1,7,-1
 128 512 l 1,8,-1
 128 640 l 1,9,-1
 256 640 l 1,10,-1
 256 768 l 1,11,-1
 384 768 l 1,12,-1
 384 896 l 1,13,-1
 512 896 l 1,14,-1
 512 640 l 1,15,-1
 1024 640 l 1,16,-1
 1024 512 l 1,17,-1
 256 512 l 1,18,-1
 256 384 l 1,19,-1
 1024 384 l 1,20,-1
 1024 256 l 1,21,-1
 512 256 l 1,22,-1
 512 0 l 1,23,-1
 384 0 l 1,0,-1
EndSplineSet
Validated: 1
EndChar

StartChar: arrowdblup
Encoding: 8657 8657 112
Width: 1024
GlyphClass: 2
Flags: W
LayerCount: 2
Fore
SplineSet
256 0 m 1,0,-1
 256 512 l 1,1,-1
 0 512 l 1,2,-1
 0 640 l 1,3,-1
 128 640 l 1,4,-1
 128 768 l 1,5,-1
 256 768 l 1,6,-1
 256 896 l 1,7,-1
 384 896 l 1,8,-1
 384 1024 l 1,9,-1
 512 1024 l 1,10,-1
 512 896 l 1,11,-1
 640 896 l 1,12,-1
 640 768 l 1,13,-1
 768 768 l 1,14,-1
 768 640 l 1,15,-1
 896 640 l 1,16,-1
 896 512 l 1,17,-1
 640 512 l 1,18,-1
 640 0 l 1,19,-1
 512 0 l 1,20,-1
 512 768 l 1,21,-1
 384 768 l 1,22,-1
 384 0 l 1,23,-1
 256 0 l 1,0,-1
EndSplineSet
Validated: 1
EndChar

StartChar: arrowdblright
Encoding: 8658 8658 113
Width: 1024
GlyphClass: 2
Flags: W
LayerCount: 2
Fore
SplineSet
512 0 m 1,0,-1
 512 256 l 1,1,-1
 0 256 l 1,2,-1
 0 384 l 1,3,-1
 768 384 l 1,4,-1
 768 512 l 1,5,-1
 0 512 l 1,6,-1
 0 640 l 1,7,-1
 512 640 l 1,8,-1
 512 896 l 1,9,-1
 640 896 l 1,10,-1
 640 768 l 1,11,-1
 768 768 l 1,12,-1
 768 640 l 1,13,-1
 896 640 l 1,14,-1
 896 512 l 1,15,-1
 1024 512 l 1,16,-1
 1024 384 l 1,17,-1
 896 384 l 1,18,-1
 896 256 l 1,19,-1
 768 256 l 1,20,-1
 768 128 l 1,21,-1
 640 128 l 1,22,-1
 640 0 l 1,23,-1
 512 0 l 1,0,-1
EndSplineSet
Validated: 1
EndChar

StartChar: arrowdbldown
Encoding: 8659 8659 114
Width: 1024
GlyphClass: 2
Flags: W
LayerCount: 2
Fore
SplineSet
384 0 m 1,0,-1
 384 128 l 1,1,-1
 256 128 l 1,2,-1
 256 256 l 1,3,-1
 128 256 l 1,4,-1
 128 384 l 1,5,-1
 0 384 l 1,6,-1
 0 512 l 1,7,-1
 256 512 l 1,8,-1
 256 1024 l 1,9,-1
 384 1024 l 1,10,-1
 384 256 l 1,11,-1
 512 256 l 1,12,-1
 512 1024 l 1,13,-1
 640 1024 l 1,14,-1
 640 512 l 1,15,-1
 896 512 l 1,16,-1
 896 384 l 1,17,-1
 768 384 l 1,18,-1
 768 256 l 1,19,-1
 640 256 l 1,20,-1
 640 128 l 1,21,-1
 512 128 l 1,22,-1
 512 0 l 1,23,-1
 384 0 l 1,0,-1
EndSplineSet
Validated: 1
EndChar

StartChar: proportional
Encoding: 8733 8733 115
Width: 1024
GlyphClass: 2
Flags: W
LayerCount: 2
Fore
SplineSet
128 256 m 1,0,-1
 128 384 l 1,1,-1
 384 384 l 1,2,-1
 384 256 l 1,3,-1
 128 256 l 1,0,-1
512 256 m 1,4,-1
 512 384 l 1,5,-1
 768 384 l 1,6,-1
 768 256 l 1,7,-1
 512 256 l 1,4,-1
0 384 m 1,8,-1
 0 640 l 1,9,-1
 128 640 l 1,10,-1
 128 384 l 1,11,-1
 0 384 l 1,8,-1
384 384 m 1,12,-1
 384 640 l 1,13,-1
 512 640 l 1,14,-1
 512 384 l 1,15,-1
 384 384 l 1,12,-1
128 640 m 1,16,-1
 128 768 l 1,17,-1
 384 768 l 1,18,-1
 384 640 l 1,19,-1
 128 640 l 1,16,-1
512 640 m 1,20,-1
 512 768 l 1,21,-1
 768 768 l 1,22,-1
 768 640 l 1,23,-1
 512 640 l 1,20,-1
EndSplineSet
Validated: 5
EndChar

StartChar: infinity
Encoding: 8734 8734 116
Width: 1024
GlyphClass: 2
Flags: W
LayerCount: 2
Fore
SplineSet
128 256 m 1,0,-1
 128 384 l 1,1,-1
 384 384 l 1,2,-1
 384 256 l 1,3,-1
 128 256 l 1,0,-1
512 256 m 1,4,-1
 512 384 l 1,5,-1
 768 384 l 1,6,-1
 768 256 l 1,7,-1
 512 256 l 1,4,-1
0 384 m 1,8,-1
 0 640 l 1,9,-1
 128 640 l 1,10,-1
 128 384 l 1,11,-1
 0 384 l 1,8,-1
384 384 m 1,12,-1
 384 640 l 1,13,-1
 512 640 l 1,14,-1
 512 384 l 1,15,-1
 384 384 l 1,12,-1
768 384 m 1,16,-1
 768 640 l 1,17,-1
 896 640 l 1,18,-1
 896 384 l 1,19,-1
 768 384 l 1,16,-1
128 640 m 1,20,-1
 128 768 l 1,21,-1
 384 768 l 1,22,-1
 384 640 l 1,23,-1
 128 640 l 1,20,-1
512 640 m 1,24,-1
 512 768 l 1,25,-1
 768 768 l 1,26,-1
 768 640 l 1,27,-1
 512 640 l 1,24,-1
EndSplineSet
Validated: 5
EndChar

StartChar: notequal
Encoding: 8800 8800 117
Width: 1024
GlyphClass: 2
Flags: W
LayerCount: 2
Fore
SplineSet
256 128 m 1,0,-1
 256 256 l 1,1,-1
 128 256 l 1,2,-1
 128 384 l 1,3,-1
 384 384 l 1,4,-1
 384 512 l 1,5,-1
 128 512 l 1,6,-1
 128 640 l 1,7,-1
 512 640 l 1,8,-1
 512 768 l 1,9,-1
 640 768 l 1,10,-1
 640 640 l 1,11,-1
 768 640 l 1,12,-1
 768 512 l 1,13,-1
 512 512 l 1,14,-1
 512 384 l 1,15,-1
 768 384 l 1,16,-1
 768 256 l 1,17,-1
 384 256 l 1,18,-1
 384 128 l 1,19,-1
 256 128 l 1,0,-1
EndSplineSet
Validated: 1
EndChar

StartChar: equivalence
Encoding: 8801 8801 118
Width: 1024
GlyphClass: 2
Flags: W
LayerCount: 2
Fore
SplineSet
128 128 m 1,0,-1
 128 256 l 1,1,-1
 768 256 l 1,2,-1
 768 128 l 1,3,-1
 128 128 l 1,0,-1
128 384 m 1,4,-1
 128 512 l 1,5,-1
 768 512 l 1,6,-1
 768 384 l 1,7,-1
 128 384 l 1,4,-1
128 640 m 1,8,-1
 128 768 l 1,9,-1
 768 768 l 1,10,-1
 768 640 l 1,11,-1
 128 640 l 1,8,-1
EndSplineSet
Validated: 1
EndChar

StartChar: uni2B05
Encoding: 11013 11013 119
Width: 1024
GlyphClass: 2
Flags: W
LayerCount: 2
Fore
SplineSet
384 0 m 1,0,-1
 384 128 l 1,1,-1
 256 128 l 1,2,-1
 256 256 l 1,3,-1
 128 256 l 1,4,-1
 128 384 l 1,5,-1
 0 384 l 1,6,-1
 0 512 l 1,7,-1
 128 512 l 1,8,-1
 128 640 l 1,9,-1
 256 640 l 1,10,-1
 256 768 l 1,11,-1
 384 768 l 1,12,-1
 384 896 l 1,13,-1
 512 896 l 1,14,-1
 512 640 l 1,15,-1
 1024 640 l 1,16,-1
 1024 256 l 1,17,-1
 512 256 l 1,18,-1
 512 0 l 1,19,-1
 384 0 l 1,0,-1
EndSplineSet
Validated: 1
EndChar

StartChar: uni2B06
Encoding: 11014 11014 120
Width: 1024
GlyphClass: 2
Flags: W
LayerCount: 2
Fore
SplineSet
256 0 m 1,0,-1
 256 512 l 1,1,-1
 0 512 l 1,2,-1
 0 640 l 1,3,-1
 128 640 l 1,4,-1
 128 768 l 1,5,-1
 256 768 l 1,6,-1
 256 896 l 1,7,-1
 384 896 l 1,8,-1
 384 1024 l 1,9,-1
 512 1024 l 1,10,-1
 512 896 l 1,11,-1
 640 896 l 1,12,-1
 640 768 l 1,13,-1
 768 768 l 1,14,-1
 768 640 l 1,15,-1
 896 640 l 1,16,-1
 896 512 l 1,17,-1
 640 512 l 1,18,-1
 640 0 l 1,19,-1
 256 0 l 1,0,-1
EndSplineSet
Validated: 1
EndChar

StartChar: uni2B07
Encoding: 11015 11015 121
Width: 1024
GlyphClass: 2
Flags: W
LayerCount: 2
Fore
SplineSet
512 0 m 1,0,-1
 512 256 l 1,1,-1
 0 256 l 1,2,-1
 0 640 l 1,3,-1
 512 640 l 1,4,-1
 512 896 l 1,5,-1
 640 896 l 1,6,-1
 640 768 l 1,7,-1
 768 768 l 1,8,-1
 768 640 l 1,9,-1
 896 640 l 1,10,-1
 896 512 l 1,11,-1
 1024 512 l 1,12,-1
 1024 384 l 1,13,-1
 896 384 l 1,14,-1
 896 256 l 1,15,-1
 768 256 l 1,16,-1
 768 128 l 1,17,-1
 640 128 l 1,18,-1
 640 0 l 1,19,-1
 512 0 l 1,0,-1
EndSplineSet
Validated: 1
EndChar

StartChar: uni2B08
Encoding: 11016 11016 122
Width: 1024
GlyphClass: 2
Flags: W
LayerCount: 2
Fore
SplineSet
256 0 m 1,0,-1
 256 128 l 1,1,-1
 128 128 l 1,2,-1
 128 256 l 1,3,-1
 0 256 l 1,4,-1
 0 384 l 1,5,-1
 128 384 l 1,6,-1
 128 512 l 1,7,-1
 256 512 l 1,8,-1
 256 640 l 1,9,-1
 384 640 l 1,10,-1
 384 768 l 1,11,-1
 512 768 l 1,12,-1
 512 896 l 1,13,-1
 384 896 l 1,14,-1
 384 1024 l 1,15,-1
 1024 1024 l 1,16,-1
 1024 384 l 1,17,-1
 896 384 l 1,18,-1
 896 512 l 1,19,-1
 768 512 l 1,20,-1
 768 384 l 1,21,-1
 640 384 l 1,22,-1
 640 256 l 1,23,-1
 512 256 l 1,24,-1
 512 128 l 1,25,-1
 384 128 l 1,26,-1
 384 0 l 1,27,-1
 256 0 l 1,0,-1
EndSplineSet
Validated: 1
EndChar

StartChar: uni2B09
Encoding: 11017 11017 123
Width: 1024
GlyphClass: 2
Flags: W
LayerCount: 2
Fore
SplineSet
640 0 m 1,0,-1
 640 128 l 1,1,-1
 512 128 l 1,2,-1
 512 256 l 1,3,-1
 384 256 l 1,4,-1
 384 384 l 1,5,-1
 256 384 l 1,6,-1
 256 512 l 1,7,-1
 128 512 l 1,8,-1
 128 384 l 1,9,-1
 0 384 l 1,10,-1
 0 1024 l 1,11,-1
 640 1024 l 1,12,-1
 640 896 l 1,13,-1
 512 896 l 1,14,-1
 512 768 l 1,15,-1
 640 768 l 1,16,-1
 640 640 l 1,17,-1
 768 640 l 1,18,-1
 768 512 l 1,19,-1
 896 512 l 1,20,-1
 896 384 l 1,21,-1
 1024 384 l 1,22,-1
 1024 256 l 1,23,-1
 896 256 l 1,24,-1
 896 128 l 1,25,-1
 768 128 l 1,26,-1
 768 0 l 1,27,-1
 640 0 l 1,0,-1
EndSplineSet
Validated: 1
EndChar

StartChar: uni2B0A
Encoding: 11018 11018 124
Width: 1024
GlyphClass: 2
Flags: W
LayerCount: 2
Fore
SplineSet
384 0 m 1,0,-1
 384 128 l 1,1,-1
 512 128 l 1,2,-1
 512 256 l 1,3,-1
 384 256 l 1,4,-1
 384 384 l 1,5,-1
 256 384 l 1,6,-1
 256 512 l 1,7,-1
 128 512 l 1,8,-1
 128 640 l 1,9,-1
 0 640 l 1,10,-1
 0 768 l 1,11,-1
 128 768 l 1,12,-1
 128 896 l 1,13,-1
 256 896 l 1,14,-1
 256 1024 l 1,15,-1
 384 1024 l 1,16,-1
 384 896 l 1,17,-1
 512 896 l 1,18,-1
 512 768 l 1,19,-1
 640 768 l 1,20,-1
 640 640 l 1,21,-1
 768 640 l 1,22,-1
 768 512 l 1,23,-1
 896 512 l 1,24,-1
 896 640 l 1,25,-1
 1024 640 l 1,26,-1
 1024 0 l 1,27,-1
 384 0 l 1,0,-1
EndSplineSet
Validated: 1
EndChar

StartChar: uni2B0B
Encoding: 11019 11019 125
Width: 1024
GlyphClass: 2
Flags: W
LayerCount: 2
Fore
SplineSet
0 0 m 1,0,-1
 0 640 l 1,1,-1
 128 640 l 1,2,-1
 128 512 l 1,3,-1
 256 512 l 1,4,-1
 256 640 l 1,5,-1
 384 640 l 1,6,-1
 384 768 l 1,7,-1
 512 768 l 1,8,-1
 512 896 l 1,9,-1
 640 896 l 1,10,-1
 640 1024 l 1,11,-1
 768 1024 l 1,12,-1
 768 896 l 1,13,-1
 896 896 l 1,14,-1
 896 768 l 1,15,-1
 1024 768 l 1,16,-1
 1024 640 l 1,17,-1
 896 640 l 1,18,-1
 896 512 l 1,19,-1
 768 512 l 1,20,-1
 768 384 l 1,21,-1
 640 384 l 1,22,-1
 640 256 l 1,23,-1
 512 256 l 1,24,-1
 512 128 l 1,25,-1
 640 128 l 1,26,-1
 640 0 l 1,27,-1
 0 0 l 1,0,-1
EndSplineSet
Validated: 1
EndChar

StartChar: triagdn
Encoding: 9660 9660 126
Width: 1024
Flags: W
LayerCount: 2
Fore
SplineSet
512 128 m 29,0,-1
 384 128 l 29,1,-1
 384 256 l 29,2,-1
 256 256 l 29,3,-1
 256 384 l 29,4,-1
 128 384 l 29,5,-1
 128 512 l 29,6,-1
 0 512 l 29,7,-1
 0 640 l 29,8,-1
 896 640 l 29,9,-1
 896 512 l 29,10,-1
 768 512 l 29,11,-1
 768 384 l 29,12,-1
 640 384 l 29,13,-1
 640 256 l 29,14,-1
 512 256 l 29,15,-1
 512 128 l 29,0,-1
EndSplineSet
Validated: 1
EndChar

StartChar: triagrt
Encoding: 9658 9658 127
Width: 1024
Flags: W
LayerCount: 2
Fore
SplineSet
768 512 m 25,0,-1
 768 384 l 25,1,-1
 640 384 l 25,2,-1
 640 256 l 25,3,-1
 512 256 l 25,4,-1
 512 128 l 25,5,-1
 384 128 l 25,6,-1
 384 0 l 25,7,-1
 256 0 l 25,8,-1
 256 896 l 25,9,-1
 384 896 l 25,10,-1
 384 768 l 25,11,-1
 512 768 l 25,12,-1
 512 640 l 25,13,-1
 640 640 l 25,14,-1
 640 512 l 25,15,-1
 768 512 l 25,0,-1
EndSplineSet
Validated: 1
EndChar

StartChar: uni25B6
Encoding: 9654 9654 128
Width: 1024
Flags: W
LayerCount: 2
Fore
SplineSet
768 512 m 25,0,-1
 768 384 l 25,1,-1
 640 384 l 25,2,-1
 640 256 l 25,3,-1
 512 256 l 25,4,-1
 512 128 l 25,5,-1
 384 128 l 25,6,-1
 384 0 l 25,7,-1
 256 0 l 25,8,-1
 256 896 l 25,9,-1
 384 896 l 25,10,-1
 384 768 l 25,11,-1
 512 768 l 25,12,-1
 512 640 l 25,13,-1
 640 640 l 25,14,-1
 640 512 l 25,15,-1
 768 512 l 25,0,-1
EndSplineSet
Validated: 1
EndChar

StartChar: uni25C0
Encoding: 9664 9664 129
Width: 1024
Flags: W
LayerCount: 2
Fore
SplineSet
256 512 m 25,0,-1
 256 384 l 25,1,-1
 384 384 l 25,2,-1
 384 256 l 25,3,-1
 512 256 l 25,4,-1
 512 128 l 25,5,-1
 640 128 l 25,6,-1
 640 0 l 25,7,-1
 768 0 l 25,8,-1
 768 896 l 25,9,-1
 640 896 l 25,10,-1
 640 768 l 25,11,-1
 512 768 l 25,12,-1
 512 640 l 25,13,-1
 384 640 l 25,14,-1
 384 512 l 25,15,-1
 256 512 l 25,0,-1
EndSplineSet
Validated: 9
EndChar

StartChar: triagup
Encoding: 9650 9650 130
Width: 1024
Flags: W
LayerCount: 2
Fore
SplineSet
512 640 m 29,0,-1
 384 640 l 29,1,-1
 384 512 l 29,2,-1
 256 512 l 29,3,-1
 256 384 l 29,4,-1
 128 384 l 29,5,-1
 128 256 l 29,6,-1
 0 256 l 29,7,-1
 0 128 l 29,8,-1
 896 128 l 29,9,-1
 896 256 l 29,10,-1
 768 256 l 29,11,-1
 768 384 l 29,12,-1
 640 384 l 29,13,-1
 640 512 l 29,14,-1
 512 512 l 29,15,-1
 512 640 l 29,0,-1
EndSplineSet
Validated: 9
EndChar

StartChar: ellipsis
Encoding: 8230 8230 131
Width: 1024
LayerCount: 2
Fore
SplineSet
640 0 m 29,0,-1
 640 128 l 25,1,-1
 768 128 l 25,2,-1
 768 0 l 25,3,-1
 640 0 l 29,0,-1
384 0 m 25,4,-1
 384 128 l 25,5,-1
 512 128 l 25,6,-1
 512 0 l 25,7,-1
 384 0 l 25,4,-1
128 0 m 25,8,-1
 128 128 l 25,9,-1
 256 128 l 25,10,-1
 256 0 l 25,11,-1
 128 0 l 25,8,-1
EndSplineSet
Validated: 1
EndChar

StartChar: uni2610
Encoding: 9744 9744 132
Width: 1024
LayerCount: 2
Fore
SplineSet
128 0 m 29,0,-1
 768 0 l 29,1,-1
 768 640 l 29,2,-1
 128 640 l 29,3,-1
 128 0 l 29,0,-1
0 -128 m 29,4,-1
 0 768 l 29,5,-1
 896 768 l 29,6,-1
 896 -128 l 29,7,-1
 0 -128 l 29,4,-1
EndSplineSet
Validated: 1
EndChar

StartChar: uni2611
Encoding: 9745 9745 133
Width: 1024
Flags: W
LayerCount: 2
Fore
SplineSet
256 256 m 29,0,-1
 256 640 l 25,1,-1
 640 640 l 25,2,-1
 640 256 l 25,3,-1
 256 256 l 29,0,-1
128 128 m 25,4,-1
 768 128 l 25,5,-1
 768 768 l 25,6,-1
 128 768 l 25,7,-1
 128 128 l 25,4,-1
0 0 m 25,8,-1
 0 896 l 25,9,-1
 896 896 l 25,10,-1
 896 0 l 25,11,-1
 0 0 l 25,8,-1
EndSplineSet
Validated: 1
EndChar

StartChar: uni2611
Encoding: 9745 9745 134
Width: 1024
Flags: W
LayerCount: 2
Fore
SplineSet
256 128 m 25,0,-1
 256 512 l 25,1,-1
 640 512 l 25,2,-1
 640 128 l 25,3,-1
 256 128 l 25,0,-1
128 0 m 25,4,-1
 768 0 l 25,5,-1
 768 640 l 25,6,-1
 128 640 l 25,7,-1
 128 0 l 25,4,-1
0 -128 m 25,8,-1
 0 768 l 25,9,-1
 896 768 l 25,10,-1
 896 -128 l 25,11,-1
 0 -128 l 25,8,-1
EndSplineSet
Validated: 6291457
EndChar

StartChar: uni2612
Encoding: 9746 9746 135
Width: 1024
Flags: W
LayerCount: 2
Fore
SplineSet
0 -128 m 25,0,-1
 0 768 l 25,1,-1
 896 768 l 25,2,-1
 896 -128 l 25,3,-1
 0 -128 l 25,0,-1
EndSplineSet
Validated: 1
EndChar
